G04 #@! TF.GenerationSoftware,KiCad,Pcbnew,(6.0.0-rc1-dev-441-gb1e5549)*
G04 #@! TF.CreationDate,2018-09-12T02:05:33+03:00*
G04 #@! TF.ProjectId,APC,4150432E6B696361645F706362000000,rev?*
G04 #@! TF.SameCoordinates,Original*
G04 #@! TF.FileFunction,Copper,L1,Top,Signal*
G04 #@! TF.FilePolarity,Positive*
%FSLAX46Y46*%
G04 Gerber Fmt 4.6, Leading zero omitted, Abs format (unit mm)*
G04 Created by KiCad (PCBNEW (6.0.0-rc1-dev-441-gb1e5549)) date 2018 September 12, Wednesday 02:05:33*
%MOMM*%
%LPD*%
G01*
G04 APERTURE LIST*
G04 #@! TA.AperFunction,ComponentPad*
%ADD10R,1.600000X1.600000*%
G04 #@! TD*
G04 #@! TA.AperFunction,ComponentPad*
%ADD11O,1.600000X1.600000*%
G04 #@! TD*
G04 #@! TA.AperFunction,ComponentPad*
%ADD12C,1.600000*%
G04 #@! TD*
G04 #@! TA.AperFunction,ComponentPad*
%ADD13C,2.499360*%
G04 #@! TD*
G04 #@! TA.AperFunction,ComponentPad*
%ADD14R,2.499360X2.499360*%
G04 #@! TD*
G04 #@! TA.AperFunction,ComponentPad*
%ADD15R,1.800000X1.800000*%
G04 #@! TD*
G04 #@! TA.AperFunction,ComponentPad*
%ADD16C,1.800000*%
G04 #@! TD*
G04 #@! TA.AperFunction,Conductor*
%ADD17C,0.250000*%
G04 #@! TD*
G04 #@! TA.AperFunction,Conductor*
%ADD18C,0.254000*%
G04 #@! TD*
G04 APERTURE END LIST*
D10*
G04 #@! TO.P,U1,1*
G04 #@! TO.N,Net-(R2-Pad2)*
X81280000Y-81280000D03*
D11*
G04 #@! TO.P,U1,8*
G04 #@! TO.N,Net-(U1-Pad5)*
X88900000Y-96520000D03*
G04 #@! TO.P,U1,2*
G04 #@! TO.N,Net-(C3-Pad1)*
X81280000Y-83820000D03*
G04 #@! TO.P,U1,9*
G04 #@! TO.N,Net-(C5-Pad1)*
X88900000Y-93980000D03*
G04 #@! TO.P,U1,3*
G04 #@! TO.N,Net-(J2-PadT)*
X81280000Y-86360000D03*
G04 #@! TO.P,U1,10*
G04 #@! TO.N,/PWR*
X88900000Y-91440000D03*
G04 #@! TO.P,U1,4*
X81280000Y-88900000D03*
G04 #@! TO.P,U1,11*
G04 #@! TO.N,Net-(J3-PadT)*
X88900000Y-88900000D03*
G04 #@! TO.P,U1,5*
G04 #@! TO.N,Net-(U1-Pad5)*
X81280000Y-91440000D03*
G04 #@! TO.P,U1,12*
G04 #@! TO.N,Net-(C4-Pad1)*
X88900000Y-86360000D03*
G04 #@! TO.P,U1,6*
G04 #@! TO.N,Net-(C3-Pad1)*
X81280000Y-93980000D03*
G04 #@! TO.P,U1,13*
G04 #@! TO.N,Net-(C4-Pad1)*
X88900000Y-83820000D03*
G04 #@! TO.P,U1,7*
G04 #@! TO.N,GND*
X81280000Y-96520000D03*
G04 #@! TO.P,U1,14*
G04 #@! TO.N,/PWR*
X88900000Y-81280000D03*
G04 #@! TD*
D12*
G04 #@! TO.P,C2,2*
G04 #@! TO.N,GND*
X74930000Y-96480000D03*
D10*
G04 #@! TO.P,C2,1*
G04 #@! TO.N,/PWR*
X74930000Y-93980000D03*
G04 #@! TD*
D12*
G04 #@! TO.P,C5,2*
G04 #@! TO.N,Net-(C5-Pad2)*
X95210000Y-86360000D03*
D10*
G04 #@! TO.P,C5,1*
G04 #@! TO.N,Net-(C5-Pad1)*
X92710000Y-86360000D03*
G04 #@! TD*
D13*
G04 #@! TO.P,RV1,3*
G04 #@! TO.N,Net-(R2-Pad2)*
X81280000Y-67310000D03*
G04 #@! TO.P,RV1,2*
X78105000Y-67310000D03*
D14*
G04 #@! TO.P,RV1,1*
G04 #@! TO.N,/PWR*
X74930000Y-67310000D03*
G04 #@! TD*
D13*
G04 #@! TO.P,RV2,3*
G04 #@! TO.N,Net-(C4-Pad1)*
X95250000Y-67310000D03*
G04 #@! TO.P,RV2,2*
X92075000Y-67310000D03*
D14*
G04 #@! TO.P,RV2,1*
G04 #@! TO.N,/PWR*
X88900000Y-67310000D03*
G04 #@! TD*
D13*
G04 #@! TO.P,J1,2*
G04 #@! TO.N,+9V*
X68580000Y-102870000D03*
D14*
G04 #@! TO.P,J1,1*
G04 #@! TO.N,GND*
X68580000Y-106680000D03*
G04 #@! TD*
D12*
G04 #@! TO.P,C1,1*
G04 #@! TO.N,/PWR*
X93980000Y-73660000D03*
G04 #@! TO.P,C1,2*
G04 #@! TO.N,GND*
X96480000Y-73660000D03*
G04 #@! TD*
G04 #@! TO.P,C3,1*
G04 #@! TO.N,Net-(C3-Pad1)*
X83820000Y-73660000D03*
G04 #@! TO.P,C3,2*
G04 #@! TO.N,GND*
X81320000Y-73660000D03*
G04 #@! TD*
G04 #@! TO.P,C4,2*
G04 #@! TO.N,GND*
X90130000Y-73660000D03*
G04 #@! TO.P,C4,1*
G04 #@! TO.N,Net-(C4-Pad1)*
X87630000Y-73660000D03*
G04 #@! TD*
D15*
G04 #@! TO.P,D1,1*
G04 #@! TO.N,Net-(D1-Pad1)*
X68580000Y-73660000D03*
D16*
G04 #@! TO.P,D1,2*
G04 #@! TO.N,/PWR*
X71120000Y-73660000D03*
G04 #@! TD*
D14*
G04 #@! TO.P,J2,1*
G04 #@! TO.N,GND*
X74930000Y-106680000D03*
D13*
G04 #@! TO.P,J2,2*
G04 #@! TO.N,Net-(J2-PadT)*
X74930000Y-102870000D03*
G04 #@! TD*
G04 #@! TO.P,J3,2*
G04 #@! TO.N,Net-(J3-PadT)*
X81280000Y-102870000D03*
D14*
G04 #@! TO.P,J3,1*
G04 #@! TO.N,GND*
X81280000Y-106680000D03*
G04 #@! TD*
G04 #@! TO.P,J4,1*
G04 #@! TO.N,GND*
X87630000Y-106680000D03*
D13*
G04 #@! TO.P,J4,2*
G04 #@! TO.N,Net-(J4-PadT)*
X87630000Y-102870000D03*
G04 #@! TD*
D12*
G04 #@! TO.P,R1,1*
G04 #@! TO.N,Net-(D1-Pad1)*
X68580000Y-78740000D03*
D11*
G04 #@! TO.P,R1,2*
G04 #@! TO.N,GND*
X68580000Y-88900000D03*
G04 #@! TD*
G04 #@! TO.P,R2,2*
G04 #@! TO.N,Net-(R2-Pad2)*
X74930000Y-78740000D03*
D12*
G04 #@! TO.P,R2,1*
G04 #@! TO.N,Net-(C3-Pad1)*
X74930000Y-88900000D03*
G04 #@! TD*
G04 #@! TO.P,R3,1*
G04 #@! TO.N,Net-(C5-Pad2)*
X95250000Y-92710000D03*
D11*
G04 #@! TO.P,R3,2*
G04 #@! TO.N,Net-(J4-PadT)*
X95250000Y-102870000D03*
G04 #@! TD*
G04 #@! TO.P,R4,2*
G04 #@! TO.N,GND*
X101111586Y-92710000D03*
D12*
G04 #@! TO.P,R4,1*
G04 #@! TO.N,Net-(J4-PadT)*
X101111586Y-102870000D03*
G04 #@! TD*
D13*
G04 #@! TO.P,SW1,2*
G04 #@! TO.N,/PWR*
X68580000Y-93980000D03*
D14*
G04 #@! TO.P,SW1,1*
G04 #@! TO.N,+9V*
X68580000Y-97790000D03*
G04 #@! TD*
D17*
G04 #@! TO.N,Net-(C3-Pad1)*
X76200000Y-88900000D02*
X81280000Y-83820000D01*
X74930000Y-88900000D02*
X76200000Y-88900000D01*
X83820000Y-81280000D02*
X81280000Y-83820000D01*
X83820000Y-73660000D02*
X83820000Y-81280000D01*
G04 #@! TO.N,Net-(C4-Pad1)*
X93345000Y-67945000D02*
X93345000Y-67310000D01*
X88900000Y-83820000D02*
X88900000Y-86360000D01*
X92075000Y-67310000D02*
X95250000Y-67310000D01*
X87630000Y-82550000D02*
X88900000Y-83820000D01*
X87630000Y-73660000D02*
X87630000Y-82550000D01*
X87630000Y-71755000D02*
X92075000Y-67310000D01*
X87630000Y-73660000D02*
X87630000Y-71755000D01*
G04 #@! TO.N,Net-(C5-Pad2)*
X95210000Y-92670000D02*
X95250000Y-92710000D01*
X95210000Y-86360000D02*
X95210000Y-92670000D01*
G04 #@! TO.N,Net-(C5-Pad1)*
X92710000Y-90170000D02*
X88900000Y-93980000D01*
X92710000Y-86360000D02*
X92710000Y-90170000D01*
G04 #@! TO.N,Net-(D1-Pad1)*
X68580000Y-78740000D02*
X68580000Y-73660000D01*
G04 #@! TO.N,+9V*
X68580000Y-102870000D02*
X68580000Y-97790000D01*
G04 #@! TO.N,Net-(R2-Pad2)*
X79790000Y-78740000D02*
X81280000Y-80230000D01*
X74930000Y-78740000D02*
X79790000Y-78740000D01*
X81280000Y-80230000D02*
X81280000Y-81280000D01*
X79790000Y-68995000D02*
X78105000Y-67310000D01*
X79790000Y-78740000D02*
X79790000Y-68995000D01*
X79790000Y-68800000D02*
X81280000Y-67310000D01*
X79790000Y-68995000D02*
X79790000Y-68800000D01*
G04 #@! TO.N,Net-(J4-PadT)*
X87630000Y-102870000D02*
X95250000Y-102870000D01*
X95250000Y-102870000D02*
X101111586Y-102870000D01*
G04 #@! TO.N,Net-(J2-PadT)*
X80480001Y-87159999D02*
X81280000Y-86360000D01*
X78740000Y-88900000D02*
X80480001Y-87159999D01*
X78740000Y-99060000D02*
X78740000Y-88900000D01*
X74930000Y-102870000D02*
X78740000Y-99060000D01*
G04 #@! TO.N,Net-(J3-PadT)*
X88100001Y-89699999D02*
X88900000Y-88900000D01*
X82529679Y-101620321D02*
X82529679Y-95270321D01*
X82529679Y-95270321D02*
X88100001Y-89699999D01*
X81280000Y-102870000D02*
X82529679Y-101620321D01*
G04 #@! TD*
D18*
G04 #@! TO.N,/PWR*
G36*
X133223000Y-123063000D02*
X58547000Y-123063000D01*
X58547000Y-120205431D01*
X58725000Y-120205431D01*
X58725000Y-121094569D01*
X59065259Y-121916026D01*
X59693974Y-122544741D01*
X60515431Y-122885000D01*
X61404569Y-122885000D01*
X62226026Y-122544741D01*
X62854741Y-121916026D01*
X63195000Y-121094569D01*
X63195000Y-120205431D01*
X128575000Y-120205431D01*
X128575000Y-121094569D01*
X128915259Y-121916026D01*
X129543974Y-122544741D01*
X130365431Y-122885000D01*
X131254569Y-122885000D01*
X132076026Y-122544741D01*
X132704741Y-121916026D01*
X133045000Y-121094569D01*
X133045000Y-120205431D01*
X132704741Y-119383974D01*
X132076026Y-118755259D01*
X131254569Y-118415000D01*
X130365431Y-118415000D01*
X129543974Y-118755259D01*
X128915259Y-119383974D01*
X128575000Y-120205431D01*
X63195000Y-120205431D01*
X62854741Y-119383974D01*
X62226026Y-118755259D01*
X61404569Y-118415000D01*
X60515431Y-118415000D01*
X59693974Y-118755259D01*
X59065259Y-119383974D01*
X58725000Y-120205431D01*
X58547000Y-120205431D01*
X58547000Y-105430320D01*
X66682880Y-105430320D01*
X66682880Y-107929680D01*
X66732163Y-108177445D01*
X66872511Y-108387489D01*
X67082555Y-108527837D01*
X67330320Y-108577120D01*
X69829680Y-108577120D01*
X70077445Y-108527837D01*
X70287489Y-108387489D01*
X70427837Y-108177445D01*
X70477120Y-107929680D01*
X70477120Y-105430320D01*
X73032880Y-105430320D01*
X73032880Y-107929680D01*
X73082163Y-108177445D01*
X73222511Y-108387489D01*
X73432555Y-108527837D01*
X73680320Y-108577120D01*
X76179680Y-108577120D01*
X76427445Y-108527837D01*
X76637489Y-108387489D01*
X76777837Y-108177445D01*
X76827120Y-107929680D01*
X76827120Y-105430320D01*
X79382880Y-105430320D01*
X79382880Y-107929680D01*
X79432163Y-108177445D01*
X79572511Y-108387489D01*
X79782555Y-108527837D01*
X80030320Y-108577120D01*
X82529680Y-108577120D01*
X82777445Y-108527837D01*
X82987489Y-108387489D01*
X83127837Y-108177445D01*
X83177120Y-107929680D01*
X83177120Y-105430320D01*
X85732880Y-105430320D01*
X85732880Y-107929680D01*
X85782163Y-108177445D01*
X85922511Y-108387489D01*
X86132555Y-108527837D01*
X86380320Y-108577120D01*
X88879680Y-108577120D01*
X89127445Y-108527837D01*
X89337489Y-108387489D01*
X89477837Y-108177445D01*
X89527120Y-107929680D01*
X89527120Y-105430320D01*
X89477837Y-105182555D01*
X89337489Y-104972511D01*
X89127445Y-104832163D01*
X88879680Y-104782880D01*
X86380320Y-104782880D01*
X86132555Y-104832163D01*
X85922511Y-104972511D01*
X85782163Y-105182555D01*
X85732880Y-105430320D01*
X83177120Y-105430320D01*
X83127837Y-105182555D01*
X82987489Y-104972511D01*
X82777445Y-104832163D01*
X82529680Y-104782880D01*
X80030320Y-104782880D01*
X79782555Y-104832163D01*
X79572511Y-104972511D01*
X79432163Y-105182555D01*
X79382880Y-105430320D01*
X76827120Y-105430320D01*
X76777837Y-105182555D01*
X76637489Y-104972511D01*
X76427445Y-104832163D01*
X76179680Y-104782880D01*
X73680320Y-104782880D01*
X73432555Y-104832163D01*
X73222511Y-104972511D01*
X73082163Y-105182555D01*
X73032880Y-105430320D01*
X70477120Y-105430320D01*
X70427837Y-105182555D01*
X70287489Y-104972511D01*
X70077445Y-104832163D01*
X69829680Y-104782880D01*
X67330320Y-104782880D01*
X67082555Y-104832163D01*
X66872511Y-104972511D01*
X66732163Y-105182555D01*
X66682880Y-105430320D01*
X58547000Y-105430320D01*
X58547000Y-96540320D01*
X66682880Y-96540320D01*
X66682880Y-99039680D01*
X66732163Y-99287445D01*
X66872511Y-99497489D01*
X67082555Y-99637837D01*
X67330320Y-99687120D01*
X67820001Y-99687120D01*
X67820000Y-101144839D01*
X67512415Y-101272245D01*
X66982245Y-101802415D01*
X66695320Y-102495114D01*
X66695320Y-103244886D01*
X66982245Y-103937585D01*
X67512415Y-104467755D01*
X68205114Y-104754680D01*
X68954886Y-104754680D01*
X69647585Y-104467755D01*
X70177755Y-103937585D01*
X70464680Y-103244886D01*
X70464680Y-102495114D01*
X73045320Y-102495114D01*
X73045320Y-103244886D01*
X73332245Y-103937585D01*
X73862415Y-104467755D01*
X74555114Y-104754680D01*
X75304886Y-104754680D01*
X75997585Y-104467755D01*
X76527755Y-103937585D01*
X76814680Y-103244886D01*
X76814680Y-102495114D01*
X79395320Y-102495114D01*
X79395320Y-103244886D01*
X79682245Y-103937585D01*
X80212415Y-104467755D01*
X80905114Y-104754680D01*
X81654886Y-104754680D01*
X82347585Y-104467755D01*
X82877755Y-103937585D01*
X83164680Y-103244886D01*
X83164680Y-102495114D01*
X85745320Y-102495114D01*
X85745320Y-103244886D01*
X86032245Y-103937585D01*
X86562415Y-104467755D01*
X87255114Y-104754680D01*
X88004886Y-104754680D01*
X88697585Y-104467755D01*
X89227755Y-103937585D01*
X89355161Y-103630000D01*
X94031957Y-103630000D01*
X94215423Y-103904577D01*
X94690091Y-104221740D01*
X95108667Y-104305000D01*
X95391333Y-104305000D01*
X95809909Y-104221740D01*
X96284577Y-103904577D01*
X96468043Y-103630000D01*
X99873156Y-103630000D01*
X99895052Y-103682862D01*
X100298724Y-104086534D01*
X100826147Y-104305000D01*
X101397025Y-104305000D01*
X101924448Y-104086534D01*
X102328120Y-103682862D01*
X102546586Y-103155439D01*
X102546586Y-102584561D01*
X102328120Y-102057138D01*
X101924448Y-101653466D01*
X101397025Y-101435000D01*
X100826147Y-101435000D01*
X100298724Y-101653466D01*
X99895052Y-102057138D01*
X99873156Y-102110000D01*
X96468043Y-102110000D01*
X96284577Y-101835423D01*
X95809909Y-101518260D01*
X95391333Y-101435000D01*
X95108667Y-101435000D01*
X94690091Y-101518260D01*
X94215423Y-101835423D01*
X94031957Y-102110000D01*
X89355161Y-102110000D01*
X89227755Y-101802415D01*
X88697585Y-101272245D01*
X88004886Y-100985320D01*
X87255114Y-100985320D01*
X86562415Y-101272245D01*
X86032245Y-101802415D01*
X85745320Y-102495114D01*
X83164680Y-102495114D01*
X83039763Y-102193537D01*
X83077608Y-102168250D01*
X83245583Y-101916858D01*
X83289679Y-101695173D01*
X83289679Y-101695168D01*
X83304567Y-101620321D01*
X83289679Y-101545474D01*
X83289679Y-95585122D01*
X84894801Y-93980000D01*
X87436887Y-93980000D01*
X87548260Y-94539909D01*
X87865423Y-95014577D01*
X88217758Y-95250000D01*
X87865423Y-95485423D01*
X87548260Y-95960091D01*
X87436887Y-96520000D01*
X87548260Y-97079909D01*
X87865423Y-97554577D01*
X88340091Y-97871740D01*
X88758667Y-97955000D01*
X89041333Y-97955000D01*
X89459909Y-97871740D01*
X89934577Y-97554577D01*
X90251740Y-97079909D01*
X90363113Y-96520000D01*
X90251740Y-95960091D01*
X89934577Y-95485423D01*
X89582242Y-95250000D01*
X89934577Y-95014577D01*
X90251740Y-94539909D01*
X90363113Y-93980000D01*
X90298688Y-93656113D01*
X93194473Y-90760329D01*
X93257929Y-90717929D01*
X93420325Y-90474887D01*
X93425904Y-90466538D01*
X93452068Y-90335000D01*
X93470000Y-90244852D01*
X93470000Y-90244848D01*
X93484888Y-90170000D01*
X93470000Y-90095152D01*
X93470000Y-87807440D01*
X93510000Y-87807440D01*
X93757765Y-87758157D01*
X93967809Y-87617809D01*
X94108157Y-87407765D01*
X94128101Y-87307497D01*
X94397138Y-87576534D01*
X94450000Y-87598430D01*
X94450001Y-91488138D01*
X94437138Y-91493466D01*
X94033466Y-91897138D01*
X93815000Y-92424561D01*
X93815000Y-92995439D01*
X94033466Y-93522862D01*
X94437138Y-93926534D01*
X94964561Y-94145000D01*
X95535439Y-94145000D01*
X96062862Y-93926534D01*
X96466534Y-93522862D01*
X96685000Y-92995439D01*
X96685000Y-92710000D01*
X99648473Y-92710000D01*
X99759846Y-93269909D01*
X100077009Y-93744577D01*
X100551677Y-94061740D01*
X100970253Y-94145000D01*
X101252919Y-94145000D01*
X101671495Y-94061740D01*
X102146163Y-93744577D01*
X102463326Y-93269909D01*
X102574699Y-92710000D01*
X102463326Y-92150091D01*
X102146163Y-91675423D01*
X101671495Y-91358260D01*
X101252919Y-91275000D01*
X100970253Y-91275000D01*
X100551677Y-91358260D01*
X100077009Y-91675423D01*
X99759846Y-92150091D01*
X99648473Y-92710000D01*
X96685000Y-92710000D01*
X96685000Y-92424561D01*
X96466534Y-91897138D01*
X96062862Y-91493466D01*
X95970000Y-91455001D01*
X95970000Y-87598430D01*
X96022862Y-87576534D01*
X96426534Y-87172862D01*
X96645000Y-86645439D01*
X96645000Y-86074561D01*
X96426534Y-85547138D01*
X96022862Y-85143466D01*
X95495439Y-84925000D01*
X94924561Y-84925000D01*
X94397138Y-85143466D01*
X94128101Y-85412503D01*
X94108157Y-85312235D01*
X93967809Y-85102191D01*
X93757765Y-84961843D01*
X93510000Y-84912560D01*
X91910000Y-84912560D01*
X91662235Y-84961843D01*
X91452191Y-85102191D01*
X91311843Y-85312235D01*
X91262560Y-85560000D01*
X91262560Y-87160000D01*
X91311843Y-87407765D01*
X91452191Y-87617809D01*
X91662235Y-87758157D01*
X91910000Y-87807440D01*
X91950000Y-87807440D01*
X91950001Y-89855197D01*
X90194128Y-91611071D01*
X90169915Y-91567000D01*
X89027000Y-91567000D01*
X89027000Y-91587000D01*
X88773000Y-91587000D01*
X88773000Y-91567000D01*
X87630085Y-91567000D01*
X87508096Y-91789039D01*
X87668959Y-92177423D01*
X88044866Y-92592389D01*
X88249108Y-92689053D01*
X87865423Y-92945423D01*
X87548260Y-93420091D01*
X87436887Y-93980000D01*
X84894801Y-93980000D01*
X87605872Y-91268929D01*
X87630085Y-91313000D01*
X88773000Y-91313000D01*
X88773000Y-91293000D01*
X89027000Y-91293000D01*
X89027000Y-91313000D01*
X90169915Y-91313000D01*
X90291904Y-91090961D01*
X90131041Y-90702577D01*
X89755134Y-90287611D01*
X89550892Y-90190947D01*
X89934577Y-89934577D01*
X90251740Y-89459909D01*
X90363113Y-88900000D01*
X90251740Y-88340091D01*
X89934577Y-87865423D01*
X89582242Y-87630000D01*
X89934577Y-87394577D01*
X90251740Y-86919909D01*
X90363113Y-86360000D01*
X90251740Y-85800091D01*
X89934577Y-85325423D01*
X89660000Y-85141957D01*
X89660000Y-85038043D01*
X89934577Y-84854577D01*
X90251740Y-84379909D01*
X90363113Y-83820000D01*
X90251740Y-83260091D01*
X89934577Y-82785423D01*
X89550892Y-82529053D01*
X89755134Y-82432389D01*
X90131041Y-82017423D01*
X90291904Y-81629039D01*
X90169915Y-81407000D01*
X89027000Y-81407000D01*
X89027000Y-81427000D01*
X88773000Y-81427000D01*
X88773000Y-81407000D01*
X88753000Y-81407000D01*
X88753000Y-81153000D01*
X88773000Y-81153000D01*
X88773000Y-80009371D01*
X89027000Y-80009371D01*
X89027000Y-81153000D01*
X90169915Y-81153000D01*
X90291904Y-80930961D01*
X90131041Y-80542577D01*
X89755134Y-80127611D01*
X89249041Y-79888086D01*
X89027000Y-80009371D01*
X88773000Y-80009371D01*
X88550959Y-79888086D01*
X88390000Y-79964265D01*
X88390000Y-74898430D01*
X88442862Y-74876534D01*
X88846534Y-74472862D01*
X88880000Y-74392068D01*
X88913466Y-74472862D01*
X89317138Y-74876534D01*
X89844561Y-75095000D01*
X90415439Y-75095000D01*
X90942862Y-74876534D01*
X91151651Y-74667745D01*
X93151861Y-74667745D01*
X93225995Y-74913864D01*
X93763223Y-75106965D01*
X94333454Y-75079778D01*
X94734005Y-74913864D01*
X94808139Y-74667745D01*
X93980000Y-73839605D01*
X93151861Y-74667745D01*
X91151651Y-74667745D01*
X91346534Y-74472862D01*
X91565000Y-73945439D01*
X91565000Y-73443223D01*
X92533035Y-73443223D01*
X92560222Y-74013454D01*
X92726136Y-74414005D01*
X92972255Y-74488139D01*
X93800395Y-73660000D01*
X94159605Y-73660000D01*
X94987745Y-74488139D01*
X95233864Y-74414005D01*
X95236290Y-74407254D01*
X95263466Y-74472862D01*
X95667138Y-74876534D01*
X96194561Y-75095000D01*
X96765439Y-75095000D01*
X97292862Y-74876534D01*
X97696534Y-74472862D01*
X97915000Y-73945439D01*
X97915000Y-73374561D01*
X97696534Y-72847138D01*
X97292862Y-72443466D01*
X96765439Y-72225000D01*
X96194561Y-72225000D01*
X95667138Y-72443466D01*
X95263466Y-72847138D01*
X95236475Y-72912299D01*
X95233864Y-72905995D01*
X94987745Y-72831861D01*
X94159605Y-73660000D01*
X93800395Y-73660000D01*
X92972255Y-72831861D01*
X92726136Y-72905995D01*
X92533035Y-73443223D01*
X91565000Y-73443223D01*
X91565000Y-73374561D01*
X91346534Y-72847138D01*
X91151651Y-72652255D01*
X93151861Y-72652255D01*
X93980000Y-73480395D01*
X94808139Y-72652255D01*
X94734005Y-72406136D01*
X94196777Y-72213035D01*
X93626546Y-72240222D01*
X93225995Y-72406136D01*
X93151861Y-72652255D01*
X91151651Y-72652255D01*
X90942862Y-72443466D01*
X90415439Y-72225000D01*
X89844561Y-72225000D01*
X89317138Y-72443466D01*
X88913466Y-72847138D01*
X88880000Y-72927932D01*
X88846534Y-72847138D01*
X88442862Y-72443466D01*
X88390000Y-72421570D01*
X88390000Y-72069801D01*
X91392528Y-69067274D01*
X91700114Y-69194680D01*
X92449886Y-69194680D01*
X93142585Y-68907755D01*
X93332865Y-68717475D01*
X93345000Y-68719889D01*
X93641536Y-68660904D01*
X93817793Y-68543133D01*
X94182415Y-68907755D01*
X94875114Y-69194680D01*
X95624886Y-69194680D01*
X96317585Y-68907755D01*
X96847755Y-68377585D01*
X97134680Y-67684886D01*
X97134680Y-66935114D01*
X96847755Y-66242415D01*
X96317585Y-65712245D01*
X95624886Y-65425320D01*
X94875114Y-65425320D01*
X94182415Y-65712245D01*
X93662500Y-66232160D01*
X93142585Y-65712245D01*
X92449886Y-65425320D01*
X91700114Y-65425320D01*
X91007415Y-65712245D01*
X90784680Y-65934980D01*
X90784680Y-65934010D01*
X90688007Y-65700621D01*
X90509378Y-65521993D01*
X90275989Y-65425320D01*
X89185750Y-65425320D01*
X89027000Y-65584070D01*
X89027000Y-67183000D01*
X89047000Y-67183000D01*
X89047000Y-67437000D01*
X89027000Y-67437000D01*
X89027000Y-69035930D01*
X89150634Y-69159564D01*
X87145528Y-71164671D01*
X87082072Y-71207071D01*
X87039672Y-71270527D01*
X87039671Y-71270528D01*
X86914097Y-71458463D01*
X86855112Y-71755000D01*
X86870001Y-71829852D01*
X86870001Y-72421570D01*
X86817138Y-72443466D01*
X86413466Y-72847138D01*
X86195000Y-73374561D01*
X86195000Y-73945439D01*
X86413466Y-74472862D01*
X86817138Y-74876534D01*
X86870000Y-74898430D01*
X86870001Y-82475148D01*
X86855112Y-82550000D01*
X86870001Y-82624852D01*
X86914097Y-82846537D01*
X87082072Y-83097929D01*
X87145528Y-83140329D01*
X87501312Y-83496113D01*
X87436887Y-83820000D01*
X87548260Y-84379909D01*
X87865423Y-84854577D01*
X88140000Y-85038044D01*
X88140001Y-85141956D01*
X87865423Y-85325423D01*
X87548260Y-85800091D01*
X87436887Y-86360000D01*
X87548260Y-86919909D01*
X87865423Y-87394577D01*
X88217758Y-87630000D01*
X87865423Y-87865423D01*
X87548260Y-88340091D01*
X87436887Y-88900000D01*
X87501312Y-89223886D01*
X82742595Y-93982604D01*
X82743113Y-93980000D01*
X82631740Y-93420091D01*
X82314577Y-92945423D01*
X81962242Y-92710000D01*
X82314577Y-92474577D01*
X82631740Y-91999909D01*
X82743113Y-91440000D01*
X82631740Y-90880091D01*
X82314577Y-90405423D01*
X81930892Y-90149053D01*
X82135134Y-90052389D01*
X82511041Y-89637423D01*
X82671904Y-89249039D01*
X82549915Y-89027000D01*
X81407000Y-89027000D01*
X81407000Y-89047000D01*
X81153000Y-89047000D01*
X81153000Y-89027000D01*
X80010085Y-89027000D01*
X79888096Y-89249039D01*
X80048959Y-89637423D01*
X80424866Y-90052389D01*
X80629108Y-90149053D01*
X80245423Y-90405423D01*
X79928260Y-90880091D01*
X79816887Y-91440000D01*
X79928260Y-91999909D01*
X80245423Y-92474577D01*
X80597758Y-92710000D01*
X80245423Y-92945423D01*
X79928260Y-93420091D01*
X79816887Y-93980000D01*
X79928260Y-94539909D01*
X80245423Y-95014577D01*
X80597758Y-95250000D01*
X80245423Y-95485423D01*
X79928260Y-95960091D01*
X79816887Y-96520000D01*
X79928260Y-97079909D01*
X80245423Y-97554577D01*
X80720091Y-97871740D01*
X81138667Y-97955000D01*
X81421333Y-97955000D01*
X81769680Y-97885710D01*
X81769679Y-101032869D01*
X81654886Y-100985320D01*
X80905114Y-100985320D01*
X80212415Y-101272245D01*
X79682245Y-101802415D01*
X79395320Y-102495114D01*
X76814680Y-102495114D01*
X76687274Y-102187528D01*
X79224473Y-99650329D01*
X79287929Y-99607929D01*
X79361723Y-99497489D01*
X79455904Y-99356538D01*
X79469647Y-99287445D01*
X79500000Y-99134852D01*
X79500000Y-99134848D01*
X79514888Y-99060000D01*
X79500000Y-98985152D01*
X79500000Y-89214801D01*
X79985872Y-88728929D01*
X80010085Y-88773000D01*
X81153000Y-88773000D01*
X81153000Y-88753000D01*
X81407000Y-88753000D01*
X81407000Y-88773000D01*
X82549915Y-88773000D01*
X82671904Y-88550961D01*
X82511041Y-88162577D01*
X82135134Y-87747611D01*
X81930892Y-87650947D01*
X82314577Y-87394577D01*
X82631740Y-86919909D01*
X82743113Y-86360000D01*
X82631740Y-85800091D01*
X82314577Y-85325423D01*
X81962242Y-85090000D01*
X82314577Y-84854577D01*
X82631740Y-84379909D01*
X82743113Y-83820000D01*
X82678688Y-83496114D01*
X84304476Y-81870327D01*
X84367929Y-81827929D01*
X84410327Y-81764476D01*
X84410329Y-81764474D01*
X84535903Y-81576538D01*
X84535904Y-81576537D01*
X84580000Y-81354852D01*
X84580000Y-81354848D01*
X84594888Y-81280001D01*
X84580000Y-81205154D01*
X84580000Y-74898430D01*
X84632862Y-74876534D01*
X85036534Y-74472862D01*
X85255000Y-73945439D01*
X85255000Y-73374561D01*
X85036534Y-72847138D01*
X84632862Y-72443466D01*
X84105439Y-72225000D01*
X83534561Y-72225000D01*
X83007138Y-72443466D01*
X82603466Y-72847138D01*
X82570000Y-72927932D01*
X82536534Y-72847138D01*
X82132862Y-72443466D01*
X81605439Y-72225000D01*
X81034561Y-72225000D01*
X80550000Y-72425712D01*
X80550000Y-69114801D01*
X80597528Y-69067274D01*
X80905114Y-69194680D01*
X81654886Y-69194680D01*
X82347585Y-68907755D01*
X82877755Y-68377585D01*
X83164680Y-67684886D01*
X83164680Y-67595750D01*
X87015320Y-67595750D01*
X87015320Y-68685990D01*
X87111993Y-68919379D01*
X87290622Y-69098007D01*
X87524011Y-69194680D01*
X88614250Y-69194680D01*
X88773000Y-69035930D01*
X88773000Y-67437000D01*
X87174070Y-67437000D01*
X87015320Y-67595750D01*
X83164680Y-67595750D01*
X83164680Y-66935114D01*
X82877755Y-66242415D01*
X82569350Y-65934010D01*
X87015320Y-65934010D01*
X87015320Y-67024250D01*
X87174070Y-67183000D01*
X88773000Y-67183000D01*
X88773000Y-65584070D01*
X88614250Y-65425320D01*
X87524011Y-65425320D01*
X87290622Y-65521993D01*
X87111993Y-65700621D01*
X87015320Y-65934010D01*
X82569350Y-65934010D01*
X82347585Y-65712245D01*
X81654886Y-65425320D01*
X80905114Y-65425320D01*
X80212415Y-65712245D01*
X79692500Y-66232160D01*
X79172585Y-65712245D01*
X78479886Y-65425320D01*
X77730114Y-65425320D01*
X77037415Y-65712245D01*
X76814680Y-65934980D01*
X76814680Y-65934010D01*
X76718007Y-65700621D01*
X76539378Y-65521993D01*
X76305989Y-65425320D01*
X75215750Y-65425320D01*
X75057000Y-65584070D01*
X75057000Y-67183000D01*
X75077000Y-67183000D01*
X75077000Y-67437000D01*
X75057000Y-67437000D01*
X75057000Y-69035930D01*
X75215750Y-69194680D01*
X76305989Y-69194680D01*
X76539378Y-69098007D01*
X76718007Y-68919379D01*
X76814680Y-68685990D01*
X76814680Y-68685020D01*
X77037415Y-68907755D01*
X77730114Y-69194680D01*
X78479886Y-69194680D01*
X78787472Y-69067274D01*
X79030001Y-69309803D01*
X79030000Y-77980000D01*
X76148043Y-77980000D01*
X75964577Y-77705423D01*
X75489909Y-77388260D01*
X75071333Y-77305000D01*
X74788667Y-77305000D01*
X74370091Y-77388260D01*
X73895423Y-77705423D01*
X73578260Y-78180091D01*
X73466887Y-78740000D01*
X73578260Y-79299909D01*
X73895423Y-79774577D01*
X74370091Y-80091740D01*
X74788667Y-80175000D01*
X75071333Y-80175000D01*
X75489909Y-80091740D01*
X75964577Y-79774577D01*
X76148043Y-79500000D01*
X79475199Y-79500000D01*
X80012257Y-80037058D01*
X79881843Y-80232235D01*
X79832560Y-80480000D01*
X79832560Y-82080000D01*
X79881843Y-82327765D01*
X80022191Y-82537809D01*
X80232235Y-82678157D01*
X80366106Y-82704785D01*
X80245423Y-82785423D01*
X79928260Y-83260091D01*
X79816887Y-83820000D01*
X79881312Y-84143886D01*
X76042297Y-87982901D01*
X75742862Y-87683466D01*
X75215439Y-87465000D01*
X74644561Y-87465000D01*
X74117138Y-87683466D01*
X73713466Y-88087138D01*
X73495000Y-88614561D01*
X73495000Y-89185439D01*
X73713466Y-89712862D01*
X74117138Y-90116534D01*
X74644561Y-90335000D01*
X75215439Y-90335000D01*
X75742862Y-90116534D01*
X76146534Y-89712862D01*
X76165136Y-89667953D01*
X76200000Y-89674888D01*
X76274847Y-89660000D01*
X76274852Y-89660000D01*
X76496537Y-89615904D01*
X76747929Y-89447929D01*
X76790331Y-89384470D01*
X79817405Y-86357397D01*
X79816887Y-86360000D01*
X79881312Y-86683886D01*
X78255528Y-88309671D01*
X78192072Y-88352071D01*
X78149672Y-88415527D01*
X78149671Y-88415528D01*
X78024097Y-88603463D01*
X77965112Y-88900000D01*
X77980001Y-88974852D01*
X77980000Y-98745198D01*
X75612472Y-101112726D01*
X75304886Y-100985320D01*
X74555114Y-100985320D01*
X73862415Y-101272245D01*
X73332245Y-101802415D01*
X73045320Y-102495114D01*
X70464680Y-102495114D01*
X70177755Y-101802415D01*
X69647585Y-101272245D01*
X69340000Y-101144839D01*
X69340000Y-99687120D01*
X69829680Y-99687120D01*
X70077445Y-99637837D01*
X70287489Y-99497489D01*
X70427837Y-99287445D01*
X70477120Y-99039680D01*
X70477120Y-96540320D01*
X70427837Y-96292555D01*
X70287489Y-96082511D01*
X70077445Y-95942163D01*
X69829680Y-95892880D01*
X67330320Y-95892880D01*
X67082555Y-95942163D01*
X66872511Y-96082511D01*
X66732163Y-96292555D01*
X66682880Y-96540320D01*
X58547000Y-96540320D01*
X58547000Y-95313089D01*
X67426517Y-95313089D01*
X67555725Y-95605859D01*
X68255883Y-95874071D01*
X69005384Y-95853928D01*
X69604275Y-95605859D01*
X69733483Y-95313089D01*
X68580000Y-94159605D01*
X67426517Y-95313089D01*
X58547000Y-95313089D01*
X58547000Y-93655883D01*
X66685929Y-93655883D01*
X66706072Y-94405384D01*
X66954141Y-95004275D01*
X67246911Y-95133483D01*
X68400395Y-93980000D01*
X68759605Y-93980000D01*
X69913089Y-95133483D01*
X70205859Y-95004275D01*
X70474071Y-94304117D01*
X70473040Y-94265750D01*
X73495000Y-94265750D01*
X73495000Y-94906309D01*
X73591673Y-95139698D01*
X73770301Y-95318327D01*
X73976759Y-95403845D01*
X73713466Y-95667138D01*
X73495000Y-96194561D01*
X73495000Y-96765439D01*
X73713466Y-97292862D01*
X74117138Y-97696534D01*
X74644561Y-97915000D01*
X75215439Y-97915000D01*
X75742862Y-97696534D01*
X76146534Y-97292862D01*
X76365000Y-96765439D01*
X76365000Y-96194561D01*
X76146534Y-95667138D01*
X75883241Y-95403845D01*
X76089699Y-95318327D01*
X76268327Y-95139698D01*
X76365000Y-94906309D01*
X76365000Y-94265750D01*
X76206250Y-94107000D01*
X75057000Y-94107000D01*
X75057000Y-94127000D01*
X74803000Y-94127000D01*
X74803000Y-94107000D01*
X73653750Y-94107000D01*
X73495000Y-94265750D01*
X70473040Y-94265750D01*
X70453928Y-93554616D01*
X70246438Y-93053691D01*
X73495000Y-93053691D01*
X73495000Y-93694250D01*
X73653750Y-93853000D01*
X74803000Y-93853000D01*
X74803000Y-92703750D01*
X75057000Y-92703750D01*
X75057000Y-93853000D01*
X76206250Y-93853000D01*
X76365000Y-93694250D01*
X76365000Y-93053691D01*
X76268327Y-92820302D01*
X76089699Y-92641673D01*
X75856310Y-92545000D01*
X75215750Y-92545000D01*
X75057000Y-92703750D01*
X74803000Y-92703750D01*
X74644250Y-92545000D01*
X74003690Y-92545000D01*
X73770301Y-92641673D01*
X73591673Y-92820302D01*
X73495000Y-93053691D01*
X70246438Y-93053691D01*
X70205859Y-92955725D01*
X69913089Y-92826517D01*
X68759605Y-93980000D01*
X68400395Y-93980000D01*
X67246911Y-92826517D01*
X66954141Y-92955725D01*
X66685929Y-93655883D01*
X58547000Y-93655883D01*
X58547000Y-92646911D01*
X67426517Y-92646911D01*
X68580000Y-93800395D01*
X69733483Y-92646911D01*
X69604275Y-92354141D01*
X68904117Y-92085929D01*
X68154616Y-92106072D01*
X67555725Y-92354141D01*
X67426517Y-92646911D01*
X58547000Y-92646911D01*
X58547000Y-88900000D01*
X67116887Y-88900000D01*
X67228260Y-89459909D01*
X67545423Y-89934577D01*
X68020091Y-90251740D01*
X68438667Y-90335000D01*
X68721333Y-90335000D01*
X69139909Y-90251740D01*
X69614577Y-89934577D01*
X69931740Y-89459909D01*
X70043113Y-88900000D01*
X69931740Y-88340091D01*
X69614577Y-87865423D01*
X69139909Y-87548260D01*
X68721333Y-87465000D01*
X68438667Y-87465000D01*
X68020091Y-87548260D01*
X67545423Y-87865423D01*
X67228260Y-88340091D01*
X67116887Y-88900000D01*
X58547000Y-88900000D01*
X58547000Y-72760000D01*
X67032560Y-72760000D01*
X67032560Y-74560000D01*
X67081843Y-74807765D01*
X67222191Y-75017809D01*
X67432235Y-75158157D01*
X67680000Y-75207440D01*
X67820001Y-75207440D01*
X67820000Y-77501570D01*
X67767138Y-77523466D01*
X67363466Y-77927138D01*
X67145000Y-78454561D01*
X67145000Y-79025439D01*
X67363466Y-79552862D01*
X67767138Y-79956534D01*
X68294561Y-80175000D01*
X68865439Y-80175000D01*
X69392862Y-79956534D01*
X69796534Y-79552862D01*
X70015000Y-79025439D01*
X70015000Y-78454561D01*
X69796534Y-77927138D01*
X69392862Y-77523466D01*
X69340000Y-77501570D01*
X69340000Y-75207440D01*
X69480000Y-75207440D01*
X69727765Y-75158157D01*
X69937809Y-75017809D01*
X70070058Y-74819886D01*
X70104890Y-74854718D01*
X70219447Y-74740161D01*
X70305852Y-74996643D01*
X70879336Y-75206458D01*
X71489460Y-75180839D01*
X71934148Y-74996643D01*
X72020554Y-74740159D01*
X71120000Y-73839605D01*
X71105858Y-73853748D01*
X70926253Y-73674143D01*
X70940395Y-73660000D01*
X71299605Y-73660000D01*
X72200159Y-74560554D01*
X72456643Y-74474148D01*
X72666458Y-73900664D01*
X72640839Y-73290540D01*
X72456643Y-72845852D01*
X72200159Y-72759446D01*
X71299605Y-73660000D01*
X70940395Y-73660000D01*
X70926253Y-73645858D01*
X71105858Y-73466253D01*
X71120000Y-73480395D01*
X72020554Y-72579841D01*
X71934148Y-72323357D01*
X71360664Y-72113542D01*
X70750540Y-72139161D01*
X70305852Y-72323357D01*
X70219447Y-72579839D01*
X70104890Y-72465282D01*
X70070058Y-72500114D01*
X69937809Y-72302191D01*
X69727765Y-72161843D01*
X69480000Y-72112560D01*
X67680000Y-72112560D01*
X67432235Y-72161843D01*
X67222191Y-72302191D01*
X67081843Y-72512235D01*
X67032560Y-72760000D01*
X58547000Y-72760000D01*
X58547000Y-67595750D01*
X73045320Y-67595750D01*
X73045320Y-68685990D01*
X73141993Y-68919379D01*
X73320622Y-69098007D01*
X73554011Y-69194680D01*
X74644250Y-69194680D01*
X74803000Y-69035930D01*
X74803000Y-67437000D01*
X73204070Y-67437000D01*
X73045320Y-67595750D01*
X58547000Y-67595750D01*
X58547000Y-65934010D01*
X73045320Y-65934010D01*
X73045320Y-67024250D01*
X73204070Y-67183000D01*
X74803000Y-67183000D01*
X74803000Y-65584070D01*
X74644250Y-65425320D01*
X73554011Y-65425320D01*
X73320622Y-65521993D01*
X73141993Y-65700621D01*
X73045320Y-65934010D01*
X58547000Y-65934010D01*
X58547000Y-56705431D01*
X58725000Y-56705431D01*
X58725000Y-57594569D01*
X59065259Y-58416026D01*
X59693974Y-59044741D01*
X60515431Y-59385000D01*
X61404569Y-59385000D01*
X62226026Y-59044741D01*
X62854741Y-58416026D01*
X63195000Y-57594569D01*
X63195000Y-56705431D01*
X128575000Y-56705431D01*
X128575000Y-57594569D01*
X128915259Y-58416026D01*
X129543974Y-59044741D01*
X130365431Y-59385000D01*
X131254569Y-59385000D01*
X132076026Y-59044741D01*
X132704741Y-58416026D01*
X133045000Y-57594569D01*
X133045000Y-56705431D01*
X132704741Y-55883974D01*
X132076026Y-55255259D01*
X131254569Y-54915000D01*
X130365431Y-54915000D01*
X129543974Y-55255259D01*
X128915259Y-55883974D01*
X128575000Y-56705431D01*
X63195000Y-56705431D01*
X62854741Y-55883974D01*
X62226026Y-55255259D01*
X61404569Y-54915000D01*
X60515431Y-54915000D01*
X59693974Y-55255259D01*
X59065259Y-55883974D01*
X58725000Y-56705431D01*
X58547000Y-56705431D01*
X58547000Y-54737000D01*
X133223000Y-54737000D01*
X133223000Y-123063000D01*
X133223000Y-123063000D01*
G37*
X133223000Y-123063000D02*
X58547000Y-123063000D01*
X58547000Y-120205431D01*
X58725000Y-120205431D01*
X58725000Y-121094569D01*
X59065259Y-121916026D01*
X59693974Y-122544741D01*
X60515431Y-122885000D01*
X61404569Y-122885000D01*
X62226026Y-122544741D01*
X62854741Y-121916026D01*
X63195000Y-121094569D01*
X63195000Y-120205431D01*
X128575000Y-120205431D01*
X128575000Y-121094569D01*
X128915259Y-121916026D01*
X129543974Y-122544741D01*
X130365431Y-122885000D01*
X131254569Y-122885000D01*
X132076026Y-122544741D01*
X132704741Y-121916026D01*
X133045000Y-121094569D01*
X133045000Y-120205431D01*
X132704741Y-119383974D01*
X132076026Y-118755259D01*
X131254569Y-118415000D01*
X130365431Y-118415000D01*
X129543974Y-118755259D01*
X128915259Y-119383974D01*
X128575000Y-120205431D01*
X63195000Y-120205431D01*
X62854741Y-119383974D01*
X62226026Y-118755259D01*
X61404569Y-118415000D01*
X60515431Y-118415000D01*
X59693974Y-118755259D01*
X59065259Y-119383974D01*
X58725000Y-120205431D01*
X58547000Y-120205431D01*
X58547000Y-105430320D01*
X66682880Y-105430320D01*
X66682880Y-107929680D01*
X66732163Y-108177445D01*
X66872511Y-108387489D01*
X67082555Y-108527837D01*
X67330320Y-108577120D01*
X69829680Y-108577120D01*
X70077445Y-108527837D01*
X70287489Y-108387489D01*
X70427837Y-108177445D01*
X70477120Y-107929680D01*
X70477120Y-105430320D01*
X73032880Y-105430320D01*
X73032880Y-107929680D01*
X73082163Y-108177445D01*
X73222511Y-108387489D01*
X73432555Y-108527837D01*
X73680320Y-108577120D01*
X76179680Y-108577120D01*
X76427445Y-108527837D01*
X76637489Y-108387489D01*
X76777837Y-108177445D01*
X76827120Y-107929680D01*
X76827120Y-105430320D01*
X79382880Y-105430320D01*
X79382880Y-107929680D01*
X79432163Y-108177445D01*
X79572511Y-108387489D01*
X79782555Y-108527837D01*
X80030320Y-108577120D01*
X82529680Y-108577120D01*
X82777445Y-108527837D01*
X82987489Y-108387489D01*
X83127837Y-108177445D01*
X83177120Y-107929680D01*
X83177120Y-105430320D01*
X85732880Y-105430320D01*
X85732880Y-107929680D01*
X85782163Y-108177445D01*
X85922511Y-108387489D01*
X86132555Y-108527837D01*
X86380320Y-108577120D01*
X88879680Y-108577120D01*
X89127445Y-108527837D01*
X89337489Y-108387489D01*
X89477837Y-108177445D01*
X89527120Y-107929680D01*
X89527120Y-105430320D01*
X89477837Y-105182555D01*
X89337489Y-104972511D01*
X89127445Y-104832163D01*
X88879680Y-104782880D01*
X86380320Y-104782880D01*
X86132555Y-104832163D01*
X85922511Y-104972511D01*
X85782163Y-105182555D01*
X85732880Y-105430320D01*
X83177120Y-105430320D01*
X83127837Y-105182555D01*
X82987489Y-104972511D01*
X82777445Y-104832163D01*
X82529680Y-104782880D01*
X80030320Y-104782880D01*
X79782555Y-104832163D01*
X79572511Y-104972511D01*
X79432163Y-105182555D01*
X79382880Y-105430320D01*
X76827120Y-105430320D01*
X76777837Y-105182555D01*
X76637489Y-104972511D01*
X76427445Y-104832163D01*
X76179680Y-104782880D01*
X73680320Y-104782880D01*
X73432555Y-104832163D01*
X73222511Y-104972511D01*
X73082163Y-105182555D01*
X73032880Y-105430320D01*
X70477120Y-105430320D01*
X70427837Y-105182555D01*
X70287489Y-104972511D01*
X70077445Y-104832163D01*
X69829680Y-104782880D01*
X67330320Y-104782880D01*
X67082555Y-104832163D01*
X66872511Y-104972511D01*
X66732163Y-105182555D01*
X66682880Y-105430320D01*
X58547000Y-105430320D01*
X58547000Y-96540320D01*
X66682880Y-96540320D01*
X66682880Y-99039680D01*
X66732163Y-99287445D01*
X66872511Y-99497489D01*
X67082555Y-99637837D01*
X67330320Y-99687120D01*
X67820001Y-99687120D01*
X67820000Y-101144839D01*
X67512415Y-101272245D01*
X66982245Y-101802415D01*
X66695320Y-102495114D01*
X66695320Y-103244886D01*
X66982245Y-103937585D01*
X67512415Y-104467755D01*
X68205114Y-104754680D01*
X68954886Y-104754680D01*
X69647585Y-104467755D01*
X70177755Y-103937585D01*
X70464680Y-103244886D01*
X70464680Y-102495114D01*
X73045320Y-102495114D01*
X73045320Y-103244886D01*
X73332245Y-103937585D01*
X73862415Y-104467755D01*
X74555114Y-104754680D01*
X75304886Y-104754680D01*
X75997585Y-104467755D01*
X76527755Y-103937585D01*
X76814680Y-103244886D01*
X76814680Y-102495114D01*
X79395320Y-102495114D01*
X79395320Y-103244886D01*
X79682245Y-103937585D01*
X80212415Y-104467755D01*
X80905114Y-104754680D01*
X81654886Y-104754680D01*
X82347585Y-104467755D01*
X82877755Y-103937585D01*
X83164680Y-103244886D01*
X83164680Y-102495114D01*
X85745320Y-102495114D01*
X85745320Y-103244886D01*
X86032245Y-103937585D01*
X86562415Y-104467755D01*
X87255114Y-104754680D01*
X88004886Y-104754680D01*
X88697585Y-104467755D01*
X89227755Y-103937585D01*
X89355161Y-103630000D01*
X94031957Y-103630000D01*
X94215423Y-103904577D01*
X94690091Y-104221740D01*
X95108667Y-104305000D01*
X95391333Y-104305000D01*
X95809909Y-104221740D01*
X96284577Y-103904577D01*
X96468043Y-103630000D01*
X99873156Y-103630000D01*
X99895052Y-103682862D01*
X100298724Y-104086534D01*
X100826147Y-104305000D01*
X101397025Y-104305000D01*
X101924448Y-104086534D01*
X102328120Y-103682862D01*
X102546586Y-103155439D01*
X102546586Y-102584561D01*
X102328120Y-102057138D01*
X101924448Y-101653466D01*
X101397025Y-101435000D01*
X100826147Y-101435000D01*
X100298724Y-101653466D01*
X99895052Y-102057138D01*
X99873156Y-102110000D01*
X96468043Y-102110000D01*
X96284577Y-101835423D01*
X95809909Y-101518260D01*
X95391333Y-101435000D01*
X95108667Y-101435000D01*
X94690091Y-101518260D01*
X94215423Y-101835423D01*
X94031957Y-102110000D01*
X89355161Y-102110000D01*
X89227755Y-101802415D01*
X88697585Y-101272245D01*
X88004886Y-100985320D01*
X87255114Y-100985320D01*
X86562415Y-101272245D01*
X86032245Y-101802415D01*
X85745320Y-102495114D01*
X83164680Y-102495114D01*
X83039763Y-102193537D01*
X83077608Y-102168250D01*
X83245583Y-101916858D01*
X83289679Y-101695173D01*
X83289679Y-101695168D01*
X83304567Y-101620321D01*
X83289679Y-101545474D01*
X83289679Y-95585122D01*
X84894801Y-93980000D01*
X87436887Y-93980000D01*
X87548260Y-94539909D01*
X87865423Y-95014577D01*
X88217758Y-95250000D01*
X87865423Y-95485423D01*
X87548260Y-95960091D01*
X87436887Y-96520000D01*
X87548260Y-97079909D01*
X87865423Y-97554577D01*
X88340091Y-97871740D01*
X88758667Y-97955000D01*
X89041333Y-97955000D01*
X89459909Y-97871740D01*
X89934577Y-97554577D01*
X90251740Y-97079909D01*
X90363113Y-96520000D01*
X90251740Y-95960091D01*
X89934577Y-95485423D01*
X89582242Y-95250000D01*
X89934577Y-95014577D01*
X90251740Y-94539909D01*
X90363113Y-93980000D01*
X90298688Y-93656113D01*
X93194473Y-90760329D01*
X93257929Y-90717929D01*
X93420325Y-90474887D01*
X93425904Y-90466538D01*
X93452068Y-90335000D01*
X93470000Y-90244852D01*
X93470000Y-90244848D01*
X93484888Y-90170000D01*
X93470000Y-90095152D01*
X93470000Y-87807440D01*
X93510000Y-87807440D01*
X93757765Y-87758157D01*
X93967809Y-87617809D01*
X94108157Y-87407765D01*
X94128101Y-87307497D01*
X94397138Y-87576534D01*
X94450000Y-87598430D01*
X94450001Y-91488138D01*
X94437138Y-91493466D01*
X94033466Y-91897138D01*
X93815000Y-92424561D01*
X93815000Y-92995439D01*
X94033466Y-93522862D01*
X94437138Y-93926534D01*
X94964561Y-94145000D01*
X95535439Y-94145000D01*
X96062862Y-93926534D01*
X96466534Y-93522862D01*
X96685000Y-92995439D01*
X96685000Y-92710000D01*
X99648473Y-92710000D01*
X99759846Y-93269909D01*
X100077009Y-93744577D01*
X100551677Y-94061740D01*
X100970253Y-94145000D01*
X101252919Y-94145000D01*
X101671495Y-94061740D01*
X102146163Y-93744577D01*
X102463326Y-93269909D01*
X102574699Y-92710000D01*
X102463326Y-92150091D01*
X102146163Y-91675423D01*
X101671495Y-91358260D01*
X101252919Y-91275000D01*
X100970253Y-91275000D01*
X100551677Y-91358260D01*
X100077009Y-91675423D01*
X99759846Y-92150091D01*
X99648473Y-92710000D01*
X96685000Y-92710000D01*
X96685000Y-92424561D01*
X96466534Y-91897138D01*
X96062862Y-91493466D01*
X95970000Y-91455001D01*
X95970000Y-87598430D01*
X96022862Y-87576534D01*
X96426534Y-87172862D01*
X96645000Y-86645439D01*
X96645000Y-86074561D01*
X96426534Y-85547138D01*
X96022862Y-85143466D01*
X95495439Y-84925000D01*
X94924561Y-84925000D01*
X94397138Y-85143466D01*
X94128101Y-85412503D01*
X94108157Y-85312235D01*
X93967809Y-85102191D01*
X93757765Y-84961843D01*
X93510000Y-84912560D01*
X91910000Y-84912560D01*
X91662235Y-84961843D01*
X91452191Y-85102191D01*
X91311843Y-85312235D01*
X91262560Y-85560000D01*
X91262560Y-87160000D01*
X91311843Y-87407765D01*
X91452191Y-87617809D01*
X91662235Y-87758157D01*
X91910000Y-87807440D01*
X91950000Y-87807440D01*
X91950001Y-89855197D01*
X90194128Y-91611071D01*
X90169915Y-91567000D01*
X89027000Y-91567000D01*
X89027000Y-91587000D01*
X88773000Y-91587000D01*
X88773000Y-91567000D01*
X87630085Y-91567000D01*
X87508096Y-91789039D01*
X87668959Y-92177423D01*
X88044866Y-92592389D01*
X88249108Y-92689053D01*
X87865423Y-92945423D01*
X87548260Y-93420091D01*
X87436887Y-93980000D01*
X84894801Y-93980000D01*
X87605872Y-91268929D01*
X87630085Y-91313000D01*
X88773000Y-91313000D01*
X88773000Y-91293000D01*
X89027000Y-91293000D01*
X89027000Y-91313000D01*
X90169915Y-91313000D01*
X90291904Y-91090961D01*
X90131041Y-90702577D01*
X89755134Y-90287611D01*
X89550892Y-90190947D01*
X89934577Y-89934577D01*
X90251740Y-89459909D01*
X90363113Y-88900000D01*
X90251740Y-88340091D01*
X89934577Y-87865423D01*
X89582242Y-87630000D01*
X89934577Y-87394577D01*
X90251740Y-86919909D01*
X90363113Y-86360000D01*
X90251740Y-85800091D01*
X89934577Y-85325423D01*
X89660000Y-85141957D01*
X89660000Y-85038043D01*
X89934577Y-84854577D01*
X90251740Y-84379909D01*
X90363113Y-83820000D01*
X90251740Y-83260091D01*
X89934577Y-82785423D01*
X89550892Y-82529053D01*
X89755134Y-82432389D01*
X90131041Y-82017423D01*
X90291904Y-81629039D01*
X90169915Y-81407000D01*
X89027000Y-81407000D01*
X89027000Y-81427000D01*
X88773000Y-81427000D01*
X88773000Y-81407000D01*
X88753000Y-81407000D01*
X88753000Y-81153000D01*
X88773000Y-81153000D01*
X88773000Y-80009371D01*
X89027000Y-80009371D01*
X89027000Y-81153000D01*
X90169915Y-81153000D01*
X90291904Y-80930961D01*
X90131041Y-80542577D01*
X89755134Y-80127611D01*
X89249041Y-79888086D01*
X89027000Y-80009371D01*
X88773000Y-80009371D01*
X88550959Y-79888086D01*
X88390000Y-79964265D01*
X88390000Y-74898430D01*
X88442862Y-74876534D01*
X88846534Y-74472862D01*
X88880000Y-74392068D01*
X88913466Y-74472862D01*
X89317138Y-74876534D01*
X89844561Y-75095000D01*
X90415439Y-75095000D01*
X90942862Y-74876534D01*
X91151651Y-74667745D01*
X93151861Y-74667745D01*
X93225995Y-74913864D01*
X93763223Y-75106965D01*
X94333454Y-75079778D01*
X94734005Y-74913864D01*
X94808139Y-74667745D01*
X93980000Y-73839605D01*
X93151861Y-74667745D01*
X91151651Y-74667745D01*
X91346534Y-74472862D01*
X91565000Y-73945439D01*
X91565000Y-73443223D01*
X92533035Y-73443223D01*
X92560222Y-74013454D01*
X92726136Y-74414005D01*
X92972255Y-74488139D01*
X93800395Y-73660000D01*
X94159605Y-73660000D01*
X94987745Y-74488139D01*
X95233864Y-74414005D01*
X95236290Y-74407254D01*
X95263466Y-74472862D01*
X95667138Y-74876534D01*
X96194561Y-75095000D01*
X96765439Y-75095000D01*
X97292862Y-74876534D01*
X97696534Y-74472862D01*
X97915000Y-73945439D01*
X97915000Y-73374561D01*
X97696534Y-72847138D01*
X97292862Y-72443466D01*
X96765439Y-72225000D01*
X96194561Y-72225000D01*
X95667138Y-72443466D01*
X95263466Y-72847138D01*
X95236475Y-72912299D01*
X95233864Y-72905995D01*
X94987745Y-72831861D01*
X94159605Y-73660000D01*
X93800395Y-73660000D01*
X92972255Y-72831861D01*
X92726136Y-72905995D01*
X92533035Y-73443223D01*
X91565000Y-73443223D01*
X91565000Y-73374561D01*
X91346534Y-72847138D01*
X91151651Y-72652255D01*
X93151861Y-72652255D01*
X93980000Y-73480395D01*
X94808139Y-72652255D01*
X94734005Y-72406136D01*
X94196777Y-72213035D01*
X93626546Y-72240222D01*
X93225995Y-72406136D01*
X93151861Y-72652255D01*
X91151651Y-72652255D01*
X90942862Y-72443466D01*
X90415439Y-72225000D01*
X89844561Y-72225000D01*
X89317138Y-72443466D01*
X88913466Y-72847138D01*
X88880000Y-72927932D01*
X88846534Y-72847138D01*
X88442862Y-72443466D01*
X88390000Y-72421570D01*
X88390000Y-72069801D01*
X91392528Y-69067274D01*
X91700114Y-69194680D01*
X92449886Y-69194680D01*
X93142585Y-68907755D01*
X93332865Y-68717475D01*
X93345000Y-68719889D01*
X93641536Y-68660904D01*
X93817793Y-68543133D01*
X94182415Y-68907755D01*
X94875114Y-69194680D01*
X95624886Y-69194680D01*
X96317585Y-68907755D01*
X96847755Y-68377585D01*
X97134680Y-67684886D01*
X97134680Y-66935114D01*
X96847755Y-66242415D01*
X96317585Y-65712245D01*
X95624886Y-65425320D01*
X94875114Y-65425320D01*
X94182415Y-65712245D01*
X93662500Y-66232160D01*
X93142585Y-65712245D01*
X92449886Y-65425320D01*
X91700114Y-65425320D01*
X91007415Y-65712245D01*
X90784680Y-65934980D01*
X90784680Y-65934010D01*
X90688007Y-65700621D01*
X90509378Y-65521993D01*
X90275989Y-65425320D01*
X89185750Y-65425320D01*
X89027000Y-65584070D01*
X89027000Y-67183000D01*
X89047000Y-67183000D01*
X89047000Y-67437000D01*
X89027000Y-67437000D01*
X89027000Y-69035930D01*
X89150634Y-69159564D01*
X87145528Y-71164671D01*
X87082072Y-71207071D01*
X87039672Y-71270527D01*
X87039671Y-71270528D01*
X86914097Y-71458463D01*
X86855112Y-71755000D01*
X86870001Y-71829852D01*
X86870001Y-72421570D01*
X86817138Y-72443466D01*
X86413466Y-72847138D01*
X86195000Y-73374561D01*
X86195000Y-73945439D01*
X86413466Y-74472862D01*
X86817138Y-74876534D01*
X86870000Y-74898430D01*
X86870001Y-82475148D01*
X86855112Y-82550000D01*
X86870001Y-82624852D01*
X86914097Y-82846537D01*
X87082072Y-83097929D01*
X87145528Y-83140329D01*
X87501312Y-83496113D01*
X87436887Y-83820000D01*
X87548260Y-84379909D01*
X87865423Y-84854577D01*
X88140000Y-85038044D01*
X88140001Y-85141956D01*
X87865423Y-85325423D01*
X87548260Y-85800091D01*
X87436887Y-86360000D01*
X87548260Y-86919909D01*
X87865423Y-87394577D01*
X88217758Y-87630000D01*
X87865423Y-87865423D01*
X87548260Y-88340091D01*
X87436887Y-88900000D01*
X87501312Y-89223886D01*
X82742595Y-93982604D01*
X82743113Y-93980000D01*
X82631740Y-93420091D01*
X82314577Y-92945423D01*
X81962242Y-92710000D01*
X82314577Y-92474577D01*
X82631740Y-91999909D01*
X82743113Y-91440000D01*
X82631740Y-90880091D01*
X82314577Y-90405423D01*
X81930892Y-90149053D01*
X82135134Y-90052389D01*
X82511041Y-89637423D01*
X82671904Y-89249039D01*
X82549915Y-89027000D01*
X81407000Y-89027000D01*
X81407000Y-89047000D01*
X81153000Y-89047000D01*
X81153000Y-89027000D01*
X80010085Y-89027000D01*
X79888096Y-89249039D01*
X80048959Y-89637423D01*
X80424866Y-90052389D01*
X80629108Y-90149053D01*
X80245423Y-90405423D01*
X79928260Y-90880091D01*
X79816887Y-91440000D01*
X79928260Y-91999909D01*
X80245423Y-92474577D01*
X80597758Y-92710000D01*
X80245423Y-92945423D01*
X79928260Y-93420091D01*
X79816887Y-93980000D01*
X79928260Y-94539909D01*
X80245423Y-95014577D01*
X80597758Y-95250000D01*
X80245423Y-95485423D01*
X79928260Y-95960091D01*
X79816887Y-96520000D01*
X79928260Y-97079909D01*
X80245423Y-97554577D01*
X80720091Y-97871740D01*
X81138667Y-97955000D01*
X81421333Y-97955000D01*
X81769680Y-97885710D01*
X81769679Y-101032869D01*
X81654886Y-100985320D01*
X80905114Y-100985320D01*
X80212415Y-101272245D01*
X79682245Y-101802415D01*
X79395320Y-102495114D01*
X76814680Y-102495114D01*
X76687274Y-102187528D01*
X79224473Y-99650329D01*
X79287929Y-99607929D01*
X79361723Y-99497489D01*
X79455904Y-99356538D01*
X79469647Y-99287445D01*
X79500000Y-99134852D01*
X79500000Y-99134848D01*
X79514888Y-99060000D01*
X79500000Y-98985152D01*
X79500000Y-89214801D01*
X79985872Y-88728929D01*
X80010085Y-88773000D01*
X81153000Y-88773000D01*
X81153000Y-88753000D01*
X81407000Y-88753000D01*
X81407000Y-88773000D01*
X82549915Y-88773000D01*
X82671904Y-88550961D01*
X82511041Y-88162577D01*
X82135134Y-87747611D01*
X81930892Y-87650947D01*
X82314577Y-87394577D01*
X82631740Y-86919909D01*
X82743113Y-86360000D01*
X82631740Y-85800091D01*
X82314577Y-85325423D01*
X81962242Y-85090000D01*
X82314577Y-84854577D01*
X82631740Y-84379909D01*
X82743113Y-83820000D01*
X82678688Y-83496114D01*
X84304476Y-81870327D01*
X84367929Y-81827929D01*
X84410327Y-81764476D01*
X84410329Y-81764474D01*
X84535903Y-81576538D01*
X84535904Y-81576537D01*
X84580000Y-81354852D01*
X84580000Y-81354848D01*
X84594888Y-81280001D01*
X84580000Y-81205154D01*
X84580000Y-74898430D01*
X84632862Y-74876534D01*
X85036534Y-74472862D01*
X85255000Y-73945439D01*
X85255000Y-73374561D01*
X85036534Y-72847138D01*
X84632862Y-72443466D01*
X84105439Y-72225000D01*
X83534561Y-72225000D01*
X83007138Y-72443466D01*
X82603466Y-72847138D01*
X82570000Y-72927932D01*
X82536534Y-72847138D01*
X82132862Y-72443466D01*
X81605439Y-72225000D01*
X81034561Y-72225000D01*
X80550000Y-72425712D01*
X80550000Y-69114801D01*
X80597528Y-69067274D01*
X80905114Y-69194680D01*
X81654886Y-69194680D01*
X82347585Y-68907755D01*
X82877755Y-68377585D01*
X83164680Y-67684886D01*
X83164680Y-67595750D01*
X87015320Y-67595750D01*
X87015320Y-68685990D01*
X87111993Y-68919379D01*
X87290622Y-69098007D01*
X87524011Y-69194680D01*
X88614250Y-69194680D01*
X88773000Y-69035930D01*
X88773000Y-67437000D01*
X87174070Y-67437000D01*
X87015320Y-67595750D01*
X83164680Y-67595750D01*
X83164680Y-66935114D01*
X82877755Y-66242415D01*
X82569350Y-65934010D01*
X87015320Y-65934010D01*
X87015320Y-67024250D01*
X87174070Y-67183000D01*
X88773000Y-67183000D01*
X88773000Y-65584070D01*
X88614250Y-65425320D01*
X87524011Y-65425320D01*
X87290622Y-65521993D01*
X87111993Y-65700621D01*
X87015320Y-65934010D01*
X82569350Y-65934010D01*
X82347585Y-65712245D01*
X81654886Y-65425320D01*
X80905114Y-65425320D01*
X80212415Y-65712245D01*
X79692500Y-66232160D01*
X79172585Y-65712245D01*
X78479886Y-65425320D01*
X77730114Y-65425320D01*
X77037415Y-65712245D01*
X76814680Y-65934980D01*
X76814680Y-65934010D01*
X76718007Y-65700621D01*
X76539378Y-65521993D01*
X76305989Y-65425320D01*
X75215750Y-65425320D01*
X75057000Y-65584070D01*
X75057000Y-67183000D01*
X75077000Y-67183000D01*
X75077000Y-67437000D01*
X75057000Y-67437000D01*
X75057000Y-69035930D01*
X75215750Y-69194680D01*
X76305989Y-69194680D01*
X76539378Y-69098007D01*
X76718007Y-68919379D01*
X76814680Y-68685990D01*
X76814680Y-68685020D01*
X77037415Y-68907755D01*
X77730114Y-69194680D01*
X78479886Y-69194680D01*
X78787472Y-69067274D01*
X79030001Y-69309803D01*
X79030000Y-77980000D01*
X76148043Y-77980000D01*
X75964577Y-77705423D01*
X75489909Y-77388260D01*
X75071333Y-77305000D01*
X74788667Y-77305000D01*
X74370091Y-77388260D01*
X73895423Y-77705423D01*
X73578260Y-78180091D01*
X73466887Y-78740000D01*
X73578260Y-79299909D01*
X73895423Y-79774577D01*
X74370091Y-80091740D01*
X74788667Y-80175000D01*
X75071333Y-80175000D01*
X75489909Y-80091740D01*
X75964577Y-79774577D01*
X76148043Y-79500000D01*
X79475199Y-79500000D01*
X80012257Y-80037058D01*
X79881843Y-80232235D01*
X79832560Y-80480000D01*
X79832560Y-82080000D01*
X79881843Y-82327765D01*
X80022191Y-82537809D01*
X80232235Y-82678157D01*
X80366106Y-82704785D01*
X80245423Y-82785423D01*
X79928260Y-83260091D01*
X79816887Y-83820000D01*
X79881312Y-84143886D01*
X76042297Y-87982901D01*
X75742862Y-87683466D01*
X75215439Y-87465000D01*
X74644561Y-87465000D01*
X74117138Y-87683466D01*
X73713466Y-88087138D01*
X73495000Y-88614561D01*
X73495000Y-89185439D01*
X73713466Y-89712862D01*
X74117138Y-90116534D01*
X74644561Y-90335000D01*
X75215439Y-90335000D01*
X75742862Y-90116534D01*
X76146534Y-89712862D01*
X76165136Y-89667953D01*
X76200000Y-89674888D01*
X76274847Y-89660000D01*
X76274852Y-89660000D01*
X76496537Y-89615904D01*
X76747929Y-89447929D01*
X76790331Y-89384470D01*
X79817405Y-86357397D01*
X79816887Y-86360000D01*
X79881312Y-86683886D01*
X78255528Y-88309671D01*
X78192072Y-88352071D01*
X78149672Y-88415527D01*
X78149671Y-88415528D01*
X78024097Y-88603463D01*
X77965112Y-88900000D01*
X77980001Y-88974852D01*
X77980000Y-98745198D01*
X75612472Y-101112726D01*
X75304886Y-100985320D01*
X74555114Y-100985320D01*
X73862415Y-101272245D01*
X73332245Y-101802415D01*
X73045320Y-102495114D01*
X70464680Y-102495114D01*
X70177755Y-101802415D01*
X69647585Y-101272245D01*
X69340000Y-101144839D01*
X69340000Y-99687120D01*
X69829680Y-99687120D01*
X70077445Y-99637837D01*
X70287489Y-99497489D01*
X70427837Y-99287445D01*
X70477120Y-99039680D01*
X70477120Y-96540320D01*
X70427837Y-96292555D01*
X70287489Y-96082511D01*
X70077445Y-95942163D01*
X69829680Y-95892880D01*
X67330320Y-95892880D01*
X67082555Y-95942163D01*
X66872511Y-96082511D01*
X66732163Y-96292555D01*
X66682880Y-96540320D01*
X58547000Y-96540320D01*
X58547000Y-95313089D01*
X67426517Y-95313089D01*
X67555725Y-95605859D01*
X68255883Y-95874071D01*
X69005384Y-95853928D01*
X69604275Y-95605859D01*
X69733483Y-95313089D01*
X68580000Y-94159605D01*
X67426517Y-95313089D01*
X58547000Y-95313089D01*
X58547000Y-93655883D01*
X66685929Y-93655883D01*
X66706072Y-94405384D01*
X66954141Y-95004275D01*
X67246911Y-95133483D01*
X68400395Y-93980000D01*
X68759605Y-93980000D01*
X69913089Y-95133483D01*
X70205859Y-95004275D01*
X70474071Y-94304117D01*
X70473040Y-94265750D01*
X73495000Y-94265750D01*
X73495000Y-94906309D01*
X73591673Y-95139698D01*
X73770301Y-95318327D01*
X73976759Y-95403845D01*
X73713466Y-95667138D01*
X73495000Y-96194561D01*
X73495000Y-96765439D01*
X73713466Y-97292862D01*
X74117138Y-97696534D01*
X74644561Y-97915000D01*
X75215439Y-97915000D01*
X75742862Y-97696534D01*
X76146534Y-97292862D01*
X76365000Y-96765439D01*
X76365000Y-96194561D01*
X76146534Y-95667138D01*
X75883241Y-95403845D01*
X76089699Y-95318327D01*
X76268327Y-95139698D01*
X76365000Y-94906309D01*
X76365000Y-94265750D01*
X76206250Y-94107000D01*
X75057000Y-94107000D01*
X75057000Y-94127000D01*
X74803000Y-94127000D01*
X74803000Y-94107000D01*
X73653750Y-94107000D01*
X73495000Y-94265750D01*
X70473040Y-94265750D01*
X70453928Y-93554616D01*
X70246438Y-93053691D01*
X73495000Y-93053691D01*
X73495000Y-93694250D01*
X73653750Y-93853000D01*
X74803000Y-93853000D01*
X74803000Y-92703750D01*
X75057000Y-92703750D01*
X75057000Y-93853000D01*
X76206250Y-93853000D01*
X76365000Y-93694250D01*
X76365000Y-93053691D01*
X76268327Y-92820302D01*
X76089699Y-92641673D01*
X75856310Y-92545000D01*
X75215750Y-92545000D01*
X75057000Y-92703750D01*
X74803000Y-92703750D01*
X74644250Y-92545000D01*
X74003690Y-92545000D01*
X73770301Y-92641673D01*
X73591673Y-92820302D01*
X73495000Y-93053691D01*
X70246438Y-93053691D01*
X70205859Y-92955725D01*
X69913089Y-92826517D01*
X68759605Y-93980000D01*
X68400395Y-93980000D01*
X67246911Y-92826517D01*
X66954141Y-92955725D01*
X66685929Y-93655883D01*
X58547000Y-93655883D01*
X58547000Y-92646911D01*
X67426517Y-92646911D01*
X68580000Y-93800395D01*
X69733483Y-92646911D01*
X69604275Y-92354141D01*
X68904117Y-92085929D01*
X68154616Y-92106072D01*
X67555725Y-92354141D01*
X67426517Y-92646911D01*
X58547000Y-92646911D01*
X58547000Y-88900000D01*
X67116887Y-88900000D01*
X67228260Y-89459909D01*
X67545423Y-89934577D01*
X68020091Y-90251740D01*
X68438667Y-90335000D01*
X68721333Y-90335000D01*
X69139909Y-90251740D01*
X69614577Y-89934577D01*
X69931740Y-89459909D01*
X70043113Y-88900000D01*
X69931740Y-88340091D01*
X69614577Y-87865423D01*
X69139909Y-87548260D01*
X68721333Y-87465000D01*
X68438667Y-87465000D01*
X68020091Y-87548260D01*
X67545423Y-87865423D01*
X67228260Y-88340091D01*
X67116887Y-88900000D01*
X58547000Y-88900000D01*
X58547000Y-72760000D01*
X67032560Y-72760000D01*
X67032560Y-74560000D01*
X67081843Y-74807765D01*
X67222191Y-75017809D01*
X67432235Y-75158157D01*
X67680000Y-75207440D01*
X67820001Y-75207440D01*
X67820000Y-77501570D01*
X67767138Y-77523466D01*
X67363466Y-77927138D01*
X67145000Y-78454561D01*
X67145000Y-79025439D01*
X67363466Y-79552862D01*
X67767138Y-79956534D01*
X68294561Y-80175000D01*
X68865439Y-80175000D01*
X69392862Y-79956534D01*
X69796534Y-79552862D01*
X70015000Y-79025439D01*
X70015000Y-78454561D01*
X69796534Y-77927138D01*
X69392862Y-77523466D01*
X69340000Y-77501570D01*
X69340000Y-75207440D01*
X69480000Y-75207440D01*
X69727765Y-75158157D01*
X69937809Y-75017809D01*
X70070058Y-74819886D01*
X70104890Y-74854718D01*
X70219447Y-74740161D01*
X70305852Y-74996643D01*
X70879336Y-75206458D01*
X71489460Y-75180839D01*
X71934148Y-74996643D01*
X72020554Y-74740159D01*
X71120000Y-73839605D01*
X71105858Y-73853748D01*
X70926253Y-73674143D01*
X70940395Y-73660000D01*
X71299605Y-73660000D01*
X72200159Y-74560554D01*
X72456643Y-74474148D01*
X72666458Y-73900664D01*
X72640839Y-73290540D01*
X72456643Y-72845852D01*
X72200159Y-72759446D01*
X71299605Y-73660000D01*
X70940395Y-73660000D01*
X70926253Y-73645858D01*
X71105858Y-73466253D01*
X71120000Y-73480395D01*
X72020554Y-72579841D01*
X71934148Y-72323357D01*
X71360664Y-72113542D01*
X70750540Y-72139161D01*
X70305852Y-72323357D01*
X70219447Y-72579839D01*
X70104890Y-72465282D01*
X70070058Y-72500114D01*
X69937809Y-72302191D01*
X69727765Y-72161843D01*
X69480000Y-72112560D01*
X67680000Y-72112560D01*
X67432235Y-72161843D01*
X67222191Y-72302191D01*
X67081843Y-72512235D01*
X67032560Y-72760000D01*
X58547000Y-72760000D01*
X58547000Y-67595750D01*
X73045320Y-67595750D01*
X73045320Y-68685990D01*
X73141993Y-68919379D01*
X73320622Y-69098007D01*
X73554011Y-69194680D01*
X74644250Y-69194680D01*
X74803000Y-69035930D01*
X74803000Y-67437000D01*
X73204070Y-67437000D01*
X73045320Y-67595750D01*
X58547000Y-67595750D01*
X58547000Y-65934010D01*
X73045320Y-65934010D01*
X73045320Y-67024250D01*
X73204070Y-67183000D01*
X74803000Y-67183000D01*
X74803000Y-65584070D01*
X74644250Y-65425320D01*
X73554011Y-65425320D01*
X73320622Y-65521993D01*
X73141993Y-65700621D01*
X73045320Y-65934010D01*
X58547000Y-65934010D01*
X58547000Y-56705431D01*
X58725000Y-56705431D01*
X58725000Y-57594569D01*
X59065259Y-58416026D01*
X59693974Y-59044741D01*
X60515431Y-59385000D01*
X61404569Y-59385000D01*
X62226026Y-59044741D01*
X62854741Y-58416026D01*
X63195000Y-57594569D01*
X63195000Y-56705431D01*
X128575000Y-56705431D01*
X128575000Y-57594569D01*
X128915259Y-58416026D01*
X129543974Y-59044741D01*
X130365431Y-59385000D01*
X131254569Y-59385000D01*
X132076026Y-59044741D01*
X132704741Y-58416026D01*
X133045000Y-57594569D01*
X133045000Y-56705431D01*
X132704741Y-55883974D01*
X132076026Y-55255259D01*
X131254569Y-54915000D01*
X130365431Y-54915000D01*
X129543974Y-55255259D01*
X128915259Y-55883974D01*
X128575000Y-56705431D01*
X63195000Y-56705431D01*
X62854741Y-55883974D01*
X62226026Y-55255259D01*
X61404569Y-54915000D01*
X60515431Y-54915000D01*
X59693974Y-55255259D01*
X59065259Y-55883974D01*
X58725000Y-56705431D01*
X58547000Y-56705431D01*
X58547000Y-54737000D01*
X133223000Y-54737000D01*
X133223000Y-123063000D01*
G04 #@! TD*
M02*
