M48
;DRILL file {KiCad (6.0.0-rc1-dev-441-gb1e5549)} date 2018 September 12, Wednesday 02:05:38
;FORMAT={-:-/ absolute / inch / decimal}
FMAT,2
INCH,TZ
T1C0.0315
T2C0.0354
T3C0.0394
%
G90
G05
M72
T1
X3.2Y-3.2
X3.2Y-3.3
X3.2Y-3.4
X3.2Y-3.5
X3.2Y-3.6
X3.2Y-3.7
X3.2Y-3.8
X3.5Y-3.2
X3.5Y-3.3
X3.5Y-3.4
X3.5Y-3.5
X3.5Y-3.6
X3.5Y-3.7
X3.5Y-3.8
X2.95Y-3.7
X2.95Y-3.7984
X3.65Y-3.4
X3.7484Y-3.4
X3.7Y-2.9
X3.7984Y-2.9
X3.2016Y-2.9
X3.3Y-2.9
X3.45Y-2.9
X3.5484Y-2.9
X2.7Y-3.1
X2.7Y-3.5
X2.95Y-3.1
X2.95Y-3.5
X3.75Y-3.65
X3.75Y-4.05
X3.9808Y-3.65
X3.9808Y-4.05
T2
X2.7Y-2.9
X2.8Y-2.9
T3
X2.95Y-2.65
X3.075Y-2.65
X3.2Y-2.65
X3.5Y-2.65
X3.625Y-2.65
X3.75Y-2.65
X2.7Y-4.05
X2.7Y-4.2
X2.95Y-4.05
X2.95Y-4.2
X3.2Y-4.05
X3.2Y-4.2
X3.45Y-4.05
X3.45Y-4.2
X2.7Y-3.7
X2.7Y-3.85
T0
M30
