G04 #@! TF.GenerationSoftware,KiCad,Pcbnew,(6.0.0-rc1-dev-441-gb1e5549)*
G04 #@! TF.CreationDate,2018-09-12T02:05:33+03:00*
G04 #@! TF.ProjectId,APC,4150432E6B696361645F706362000000,rev?*
G04 #@! TF.SameCoordinates,Original*
G04 #@! TF.FileFunction,Copper,L2,Bot,Signal*
G04 #@! TF.FilePolarity,Positive*
%FSLAX46Y46*%
G04 Gerber Fmt 4.6, Leading zero omitted, Abs format (unit mm)*
G04 Created by KiCad (PCBNEW (6.0.0-rc1-dev-441-gb1e5549)) date 2018 September 12, Wednesday 02:05:33*
%MOMM*%
%LPD*%
G01*
G04 APERTURE LIST*
G04 #@! TA.AperFunction,ComponentPad*
%ADD10R,1.600000X1.600000*%
G04 #@! TD*
G04 #@! TA.AperFunction,ComponentPad*
%ADD11O,1.600000X1.600000*%
G04 #@! TD*
G04 #@! TA.AperFunction,ComponentPad*
%ADD12C,1.600000*%
G04 #@! TD*
G04 #@! TA.AperFunction,ComponentPad*
%ADD13C,2.499360*%
G04 #@! TD*
G04 #@! TA.AperFunction,ComponentPad*
%ADD14R,2.499360X2.499360*%
G04 #@! TD*
G04 #@! TA.AperFunction,ComponentPad*
%ADD15R,1.800000X1.800000*%
G04 #@! TD*
G04 #@! TA.AperFunction,ComponentPad*
%ADD16C,1.800000*%
G04 #@! TD*
G04 #@! TA.AperFunction,Conductor*
%ADD17C,0.250000*%
G04 #@! TD*
G04 #@! TA.AperFunction,Conductor*
%ADD18C,0.254000*%
G04 #@! TD*
G04 APERTURE END LIST*
D10*
G04 #@! TO.P,U1,1*
G04 #@! TO.N,Net-(R2-Pad2)*
X81280000Y-81280000D03*
D11*
G04 #@! TO.P,U1,8*
G04 #@! TO.N,Net-(U1-Pad5)*
X88900000Y-96520000D03*
G04 #@! TO.P,U1,2*
G04 #@! TO.N,Net-(C3-Pad1)*
X81280000Y-83820000D03*
G04 #@! TO.P,U1,9*
G04 #@! TO.N,Net-(C5-Pad1)*
X88900000Y-93980000D03*
G04 #@! TO.P,U1,3*
G04 #@! TO.N,Net-(J2-PadT)*
X81280000Y-86360000D03*
G04 #@! TO.P,U1,10*
G04 #@! TO.N,/PWR*
X88900000Y-91440000D03*
G04 #@! TO.P,U1,4*
X81280000Y-88900000D03*
G04 #@! TO.P,U1,11*
G04 #@! TO.N,Net-(J3-PadT)*
X88900000Y-88900000D03*
G04 #@! TO.P,U1,5*
G04 #@! TO.N,Net-(U1-Pad5)*
X81280000Y-91440000D03*
G04 #@! TO.P,U1,12*
G04 #@! TO.N,Net-(C4-Pad1)*
X88900000Y-86360000D03*
G04 #@! TO.P,U1,6*
G04 #@! TO.N,Net-(C3-Pad1)*
X81280000Y-93980000D03*
G04 #@! TO.P,U1,13*
G04 #@! TO.N,Net-(C4-Pad1)*
X88900000Y-83820000D03*
G04 #@! TO.P,U1,7*
G04 #@! TO.N,GND*
X81280000Y-96520000D03*
G04 #@! TO.P,U1,14*
G04 #@! TO.N,/PWR*
X88900000Y-81280000D03*
G04 #@! TD*
D12*
G04 #@! TO.P,C2,2*
G04 #@! TO.N,GND*
X74930000Y-96480000D03*
D10*
G04 #@! TO.P,C2,1*
G04 #@! TO.N,/PWR*
X74930000Y-93980000D03*
G04 #@! TD*
D12*
G04 #@! TO.P,C5,2*
G04 #@! TO.N,Net-(C5-Pad2)*
X95210000Y-86360000D03*
D10*
G04 #@! TO.P,C5,1*
G04 #@! TO.N,Net-(C5-Pad1)*
X92710000Y-86360000D03*
G04 #@! TD*
D13*
G04 #@! TO.P,RV1,3*
G04 #@! TO.N,Net-(R2-Pad2)*
X81280000Y-67310000D03*
G04 #@! TO.P,RV1,2*
X78105000Y-67310000D03*
D14*
G04 #@! TO.P,RV1,1*
G04 #@! TO.N,/PWR*
X74930000Y-67310000D03*
G04 #@! TD*
D13*
G04 #@! TO.P,RV2,3*
G04 #@! TO.N,Net-(C4-Pad1)*
X95250000Y-67310000D03*
G04 #@! TO.P,RV2,2*
X92075000Y-67310000D03*
D14*
G04 #@! TO.P,RV2,1*
G04 #@! TO.N,/PWR*
X88900000Y-67310000D03*
G04 #@! TD*
D13*
G04 #@! TO.P,J1,2*
G04 #@! TO.N,+9V*
X68580000Y-102870000D03*
D14*
G04 #@! TO.P,J1,1*
G04 #@! TO.N,GND*
X68580000Y-106680000D03*
G04 #@! TD*
D12*
G04 #@! TO.P,C1,1*
G04 #@! TO.N,/PWR*
X93980000Y-73660000D03*
G04 #@! TO.P,C1,2*
G04 #@! TO.N,GND*
X96480000Y-73660000D03*
G04 #@! TD*
G04 #@! TO.P,C3,1*
G04 #@! TO.N,Net-(C3-Pad1)*
X83820000Y-73660000D03*
G04 #@! TO.P,C3,2*
G04 #@! TO.N,GND*
X81320000Y-73660000D03*
G04 #@! TD*
G04 #@! TO.P,C4,2*
G04 #@! TO.N,GND*
X90130000Y-73660000D03*
G04 #@! TO.P,C4,1*
G04 #@! TO.N,Net-(C4-Pad1)*
X87630000Y-73660000D03*
G04 #@! TD*
D15*
G04 #@! TO.P,D1,1*
G04 #@! TO.N,Net-(D1-Pad1)*
X68580000Y-73660000D03*
D16*
G04 #@! TO.P,D1,2*
G04 #@! TO.N,/PWR*
X71120000Y-73660000D03*
G04 #@! TD*
D14*
G04 #@! TO.P,J2,1*
G04 #@! TO.N,GND*
X74930000Y-106680000D03*
D13*
G04 #@! TO.P,J2,2*
G04 #@! TO.N,Net-(J2-PadT)*
X74930000Y-102870000D03*
G04 #@! TD*
G04 #@! TO.P,J3,2*
G04 #@! TO.N,Net-(J3-PadT)*
X81280000Y-102870000D03*
D14*
G04 #@! TO.P,J3,1*
G04 #@! TO.N,GND*
X81280000Y-106680000D03*
G04 #@! TD*
G04 #@! TO.P,J4,1*
G04 #@! TO.N,GND*
X87630000Y-106680000D03*
D13*
G04 #@! TO.P,J4,2*
G04 #@! TO.N,Net-(J4-PadT)*
X87630000Y-102870000D03*
G04 #@! TD*
D12*
G04 #@! TO.P,R1,1*
G04 #@! TO.N,Net-(D1-Pad1)*
X68580000Y-78740000D03*
D11*
G04 #@! TO.P,R1,2*
G04 #@! TO.N,GND*
X68580000Y-88900000D03*
G04 #@! TD*
G04 #@! TO.P,R2,2*
G04 #@! TO.N,Net-(R2-Pad2)*
X74930000Y-78740000D03*
D12*
G04 #@! TO.P,R2,1*
G04 #@! TO.N,Net-(C3-Pad1)*
X74930000Y-88900000D03*
G04 #@! TD*
G04 #@! TO.P,R3,1*
G04 #@! TO.N,Net-(C5-Pad2)*
X95250000Y-92710000D03*
D11*
G04 #@! TO.P,R3,2*
G04 #@! TO.N,Net-(J4-PadT)*
X95250000Y-102870000D03*
G04 #@! TD*
G04 #@! TO.P,R4,2*
G04 #@! TO.N,GND*
X101111586Y-92710000D03*
D12*
G04 #@! TO.P,R4,1*
G04 #@! TO.N,Net-(J4-PadT)*
X101111586Y-102870000D03*
G04 #@! TD*
D13*
G04 #@! TO.P,SW1,2*
G04 #@! TO.N,/PWR*
X68580000Y-93980000D03*
D14*
G04 #@! TO.P,SW1,1*
G04 #@! TO.N,+9V*
X68580000Y-97790000D03*
G04 #@! TD*
D17*
G04 #@! TO.N,Net-(C3-Pad1)*
X76200000Y-88900000D02*
X81280000Y-93980000D01*
X74930000Y-88900000D02*
X76200000Y-88900000D01*
G04 #@! TO.N,Net-(U1-Pad5)*
X83820000Y-91440000D02*
X88900000Y-96520000D01*
X81280000Y-91440000D02*
X83820000Y-91440000D01*
G04 #@! TD*
D18*
G04 #@! TO.N,GND*
G36*
X133223000Y-123063000D02*
X58547000Y-123063000D01*
X58547000Y-120205431D01*
X58725000Y-120205431D01*
X58725000Y-121094569D01*
X59065259Y-121916026D01*
X59693974Y-122544741D01*
X60515431Y-122885000D01*
X61404569Y-122885000D01*
X62226026Y-122544741D01*
X62854741Y-121916026D01*
X63195000Y-121094569D01*
X63195000Y-120205431D01*
X128575000Y-120205431D01*
X128575000Y-121094569D01*
X128915259Y-121916026D01*
X129543974Y-122544741D01*
X130365431Y-122885000D01*
X131254569Y-122885000D01*
X132076026Y-122544741D01*
X132704741Y-121916026D01*
X133045000Y-121094569D01*
X133045000Y-120205431D01*
X132704741Y-119383974D01*
X132076026Y-118755259D01*
X131254569Y-118415000D01*
X130365431Y-118415000D01*
X129543974Y-118755259D01*
X128915259Y-119383974D01*
X128575000Y-120205431D01*
X63195000Y-120205431D01*
X62854741Y-119383974D01*
X62226026Y-118755259D01*
X61404569Y-118415000D01*
X60515431Y-118415000D01*
X59693974Y-118755259D01*
X59065259Y-119383974D01*
X58725000Y-120205431D01*
X58547000Y-120205431D01*
X58547000Y-106965750D01*
X66695320Y-106965750D01*
X66695320Y-108055989D01*
X66791993Y-108289378D01*
X66970621Y-108468007D01*
X67204010Y-108564680D01*
X68294250Y-108564680D01*
X68453000Y-108405930D01*
X68453000Y-106807000D01*
X68707000Y-106807000D01*
X68707000Y-108405930D01*
X68865750Y-108564680D01*
X69955990Y-108564680D01*
X70189379Y-108468007D01*
X70368007Y-108289378D01*
X70464680Y-108055989D01*
X70464680Y-106965750D01*
X73045320Y-106965750D01*
X73045320Y-108055989D01*
X73141993Y-108289378D01*
X73320621Y-108468007D01*
X73554010Y-108564680D01*
X74644250Y-108564680D01*
X74803000Y-108405930D01*
X74803000Y-106807000D01*
X75057000Y-106807000D01*
X75057000Y-108405930D01*
X75215750Y-108564680D01*
X76305990Y-108564680D01*
X76539379Y-108468007D01*
X76718007Y-108289378D01*
X76814680Y-108055989D01*
X76814680Y-106965750D01*
X79395320Y-106965750D01*
X79395320Y-108055989D01*
X79491993Y-108289378D01*
X79670621Y-108468007D01*
X79904010Y-108564680D01*
X80994250Y-108564680D01*
X81153000Y-108405930D01*
X81153000Y-106807000D01*
X81407000Y-106807000D01*
X81407000Y-108405930D01*
X81565750Y-108564680D01*
X82655990Y-108564680D01*
X82889379Y-108468007D01*
X83068007Y-108289378D01*
X83164680Y-108055989D01*
X83164680Y-106965750D01*
X85745320Y-106965750D01*
X85745320Y-108055989D01*
X85841993Y-108289378D01*
X86020621Y-108468007D01*
X86254010Y-108564680D01*
X87344250Y-108564680D01*
X87503000Y-108405930D01*
X87503000Y-106807000D01*
X87757000Y-106807000D01*
X87757000Y-108405930D01*
X87915750Y-108564680D01*
X89005990Y-108564680D01*
X89239379Y-108468007D01*
X89418007Y-108289378D01*
X89514680Y-108055989D01*
X89514680Y-106965750D01*
X89355930Y-106807000D01*
X87757000Y-106807000D01*
X87503000Y-106807000D01*
X85904070Y-106807000D01*
X85745320Y-106965750D01*
X83164680Y-106965750D01*
X83005930Y-106807000D01*
X81407000Y-106807000D01*
X81153000Y-106807000D01*
X79554070Y-106807000D01*
X79395320Y-106965750D01*
X76814680Y-106965750D01*
X76655930Y-106807000D01*
X75057000Y-106807000D01*
X74803000Y-106807000D01*
X73204070Y-106807000D01*
X73045320Y-106965750D01*
X70464680Y-106965750D01*
X70305930Y-106807000D01*
X68707000Y-106807000D01*
X68453000Y-106807000D01*
X66854070Y-106807000D01*
X66695320Y-106965750D01*
X58547000Y-106965750D01*
X58547000Y-105304011D01*
X66695320Y-105304011D01*
X66695320Y-106394250D01*
X66854070Y-106553000D01*
X68453000Y-106553000D01*
X68453000Y-104954070D01*
X68707000Y-104954070D01*
X68707000Y-106553000D01*
X70305930Y-106553000D01*
X70464680Y-106394250D01*
X70464680Y-105304011D01*
X73045320Y-105304011D01*
X73045320Y-106394250D01*
X73204070Y-106553000D01*
X74803000Y-106553000D01*
X74803000Y-104954070D01*
X75057000Y-104954070D01*
X75057000Y-106553000D01*
X76655930Y-106553000D01*
X76814680Y-106394250D01*
X76814680Y-105304011D01*
X79395320Y-105304011D01*
X79395320Y-106394250D01*
X79554070Y-106553000D01*
X81153000Y-106553000D01*
X81153000Y-104954070D01*
X81407000Y-104954070D01*
X81407000Y-106553000D01*
X83005930Y-106553000D01*
X83164680Y-106394250D01*
X83164680Y-105304011D01*
X85745320Y-105304011D01*
X85745320Y-106394250D01*
X85904070Y-106553000D01*
X87503000Y-106553000D01*
X87503000Y-104954070D01*
X87757000Y-104954070D01*
X87757000Y-106553000D01*
X89355930Y-106553000D01*
X89514680Y-106394250D01*
X89514680Y-105304011D01*
X89418007Y-105070622D01*
X89239379Y-104891993D01*
X89005990Y-104795320D01*
X87915750Y-104795320D01*
X87757000Y-104954070D01*
X87503000Y-104954070D01*
X87344250Y-104795320D01*
X86254010Y-104795320D01*
X86020621Y-104891993D01*
X85841993Y-105070622D01*
X85745320Y-105304011D01*
X83164680Y-105304011D01*
X83068007Y-105070622D01*
X82889379Y-104891993D01*
X82655990Y-104795320D01*
X81565750Y-104795320D01*
X81407000Y-104954070D01*
X81153000Y-104954070D01*
X80994250Y-104795320D01*
X79904010Y-104795320D01*
X79670621Y-104891993D01*
X79491993Y-105070622D01*
X79395320Y-105304011D01*
X76814680Y-105304011D01*
X76718007Y-105070622D01*
X76539379Y-104891993D01*
X76305990Y-104795320D01*
X75215750Y-104795320D01*
X75057000Y-104954070D01*
X74803000Y-104954070D01*
X74644250Y-104795320D01*
X73554010Y-104795320D01*
X73320621Y-104891993D01*
X73141993Y-105070622D01*
X73045320Y-105304011D01*
X70464680Y-105304011D01*
X70368007Y-105070622D01*
X70189379Y-104891993D01*
X69955990Y-104795320D01*
X68865750Y-104795320D01*
X68707000Y-104954070D01*
X68453000Y-104954070D01*
X68294250Y-104795320D01*
X67204010Y-104795320D01*
X66970621Y-104891993D01*
X66791993Y-105070622D01*
X66695320Y-105304011D01*
X58547000Y-105304011D01*
X58547000Y-102495114D01*
X66695320Y-102495114D01*
X66695320Y-103244886D01*
X66982245Y-103937585D01*
X67512415Y-104467755D01*
X68205114Y-104754680D01*
X68954886Y-104754680D01*
X69647585Y-104467755D01*
X70177755Y-103937585D01*
X70464680Y-103244886D01*
X70464680Y-102495114D01*
X73045320Y-102495114D01*
X73045320Y-103244886D01*
X73332245Y-103937585D01*
X73862415Y-104467755D01*
X74555114Y-104754680D01*
X75304886Y-104754680D01*
X75997585Y-104467755D01*
X76527755Y-103937585D01*
X76814680Y-103244886D01*
X76814680Y-102495114D01*
X79395320Y-102495114D01*
X79395320Y-103244886D01*
X79682245Y-103937585D01*
X80212415Y-104467755D01*
X80905114Y-104754680D01*
X81654886Y-104754680D01*
X82347585Y-104467755D01*
X82877755Y-103937585D01*
X83164680Y-103244886D01*
X83164680Y-102495114D01*
X85745320Y-102495114D01*
X85745320Y-103244886D01*
X86032245Y-103937585D01*
X86562415Y-104467755D01*
X87255114Y-104754680D01*
X88004886Y-104754680D01*
X88697585Y-104467755D01*
X89227755Y-103937585D01*
X89514680Y-103244886D01*
X89514680Y-102870000D01*
X93786887Y-102870000D01*
X93898260Y-103429909D01*
X94215423Y-103904577D01*
X94690091Y-104221740D01*
X95108667Y-104305000D01*
X95391333Y-104305000D01*
X95809909Y-104221740D01*
X96284577Y-103904577D01*
X96601740Y-103429909D01*
X96713113Y-102870000D01*
X96656336Y-102584561D01*
X99676586Y-102584561D01*
X99676586Y-103155439D01*
X99895052Y-103682862D01*
X100298724Y-104086534D01*
X100826147Y-104305000D01*
X101397025Y-104305000D01*
X101924448Y-104086534D01*
X102328120Y-103682862D01*
X102546586Y-103155439D01*
X102546586Y-102584561D01*
X102328120Y-102057138D01*
X101924448Y-101653466D01*
X101397025Y-101435000D01*
X100826147Y-101435000D01*
X100298724Y-101653466D01*
X99895052Y-102057138D01*
X99676586Y-102584561D01*
X96656336Y-102584561D01*
X96601740Y-102310091D01*
X96284577Y-101835423D01*
X95809909Y-101518260D01*
X95391333Y-101435000D01*
X95108667Y-101435000D01*
X94690091Y-101518260D01*
X94215423Y-101835423D01*
X93898260Y-102310091D01*
X93786887Y-102870000D01*
X89514680Y-102870000D01*
X89514680Y-102495114D01*
X89227755Y-101802415D01*
X88697585Y-101272245D01*
X88004886Y-100985320D01*
X87255114Y-100985320D01*
X86562415Y-101272245D01*
X86032245Y-101802415D01*
X85745320Y-102495114D01*
X83164680Y-102495114D01*
X82877755Y-101802415D01*
X82347585Y-101272245D01*
X81654886Y-100985320D01*
X80905114Y-100985320D01*
X80212415Y-101272245D01*
X79682245Y-101802415D01*
X79395320Y-102495114D01*
X76814680Y-102495114D01*
X76527755Y-101802415D01*
X75997585Y-101272245D01*
X75304886Y-100985320D01*
X74555114Y-100985320D01*
X73862415Y-101272245D01*
X73332245Y-101802415D01*
X73045320Y-102495114D01*
X70464680Y-102495114D01*
X70177755Y-101802415D01*
X69647585Y-101272245D01*
X68954886Y-100985320D01*
X68205114Y-100985320D01*
X67512415Y-101272245D01*
X66982245Y-101802415D01*
X66695320Y-102495114D01*
X58547000Y-102495114D01*
X58547000Y-96540320D01*
X66682880Y-96540320D01*
X66682880Y-99039680D01*
X66732163Y-99287445D01*
X66872511Y-99497489D01*
X67082555Y-99637837D01*
X67330320Y-99687120D01*
X69829680Y-99687120D01*
X70077445Y-99637837D01*
X70287489Y-99497489D01*
X70427837Y-99287445D01*
X70477120Y-99039680D01*
X70477120Y-97487745D01*
X74101861Y-97487745D01*
X74175995Y-97733864D01*
X74713223Y-97926965D01*
X75283454Y-97899778D01*
X75684005Y-97733864D01*
X75758139Y-97487745D01*
X74930000Y-96659605D01*
X74101861Y-97487745D01*
X70477120Y-97487745D01*
X70477120Y-96540320D01*
X70427837Y-96292555D01*
X70408238Y-96263223D01*
X73483035Y-96263223D01*
X73510222Y-96833454D01*
X73676136Y-97234005D01*
X73922255Y-97308139D01*
X74750395Y-96480000D01*
X75109605Y-96480000D01*
X75937745Y-97308139D01*
X76183864Y-97234005D01*
X76315047Y-96869039D01*
X79888096Y-96869039D01*
X80048959Y-97257423D01*
X80424866Y-97672389D01*
X80930959Y-97911914D01*
X81153000Y-97790629D01*
X81153000Y-96647000D01*
X81407000Y-96647000D01*
X81407000Y-97790629D01*
X81629041Y-97911914D01*
X82135134Y-97672389D01*
X82511041Y-97257423D01*
X82671904Y-96869039D01*
X82549915Y-96647000D01*
X81407000Y-96647000D01*
X81153000Y-96647000D01*
X80010085Y-96647000D01*
X79888096Y-96869039D01*
X76315047Y-96869039D01*
X76376965Y-96696777D01*
X76349778Y-96126546D01*
X76183864Y-95725995D01*
X75937745Y-95651861D01*
X75109605Y-96480000D01*
X74750395Y-96480000D01*
X73922255Y-95651861D01*
X73676136Y-95725995D01*
X73483035Y-96263223D01*
X70408238Y-96263223D01*
X70287489Y-96082511D01*
X70077445Y-95942163D01*
X69829680Y-95892880D01*
X67330320Y-95892880D01*
X67082555Y-95942163D01*
X66872511Y-96082511D01*
X66732163Y-96292555D01*
X66682880Y-96540320D01*
X58547000Y-96540320D01*
X58547000Y-93605114D01*
X66695320Y-93605114D01*
X66695320Y-94354886D01*
X66982245Y-95047585D01*
X67512415Y-95577755D01*
X68205114Y-95864680D01*
X68954886Y-95864680D01*
X69647585Y-95577755D01*
X70177755Y-95047585D01*
X70464680Y-94354886D01*
X70464680Y-93605114D01*
X70288593Y-93180000D01*
X73482560Y-93180000D01*
X73482560Y-94780000D01*
X73531843Y-95027765D01*
X73672191Y-95237809D01*
X73882235Y-95378157D01*
X74116187Y-95424693D01*
X74101861Y-95472255D01*
X74930000Y-96300395D01*
X75758139Y-95472255D01*
X75743813Y-95424693D01*
X75977765Y-95378157D01*
X76187809Y-95237809D01*
X76328157Y-95027765D01*
X76377440Y-94780000D01*
X76377440Y-93180000D01*
X76328157Y-92932235D01*
X76187809Y-92722191D01*
X75977765Y-92581843D01*
X75730000Y-92532560D01*
X74130000Y-92532560D01*
X73882235Y-92581843D01*
X73672191Y-92722191D01*
X73531843Y-92932235D01*
X73482560Y-93180000D01*
X70288593Y-93180000D01*
X70177755Y-92912415D01*
X69647585Y-92382245D01*
X68954886Y-92095320D01*
X68205114Y-92095320D01*
X67512415Y-92382245D01*
X66982245Y-92912415D01*
X66695320Y-93605114D01*
X58547000Y-93605114D01*
X58547000Y-89249041D01*
X67188086Y-89249041D01*
X67427611Y-89755134D01*
X67842577Y-90131041D01*
X68230961Y-90291904D01*
X68453000Y-90169915D01*
X68453000Y-89027000D01*
X68707000Y-89027000D01*
X68707000Y-90169915D01*
X68929039Y-90291904D01*
X69317423Y-90131041D01*
X69732389Y-89755134D01*
X69971914Y-89249041D01*
X69850629Y-89027000D01*
X68707000Y-89027000D01*
X68453000Y-89027000D01*
X67309371Y-89027000D01*
X67188086Y-89249041D01*
X58547000Y-89249041D01*
X58547000Y-88550959D01*
X67188086Y-88550959D01*
X67309371Y-88773000D01*
X68453000Y-88773000D01*
X68453000Y-87630085D01*
X68707000Y-87630085D01*
X68707000Y-88773000D01*
X69850629Y-88773000D01*
X69937172Y-88614561D01*
X73495000Y-88614561D01*
X73495000Y-89185439D01*
X73713466Y-89712862D01*
X74117138Y-90116534D01*
X74644561Y-90335000D01*
X75215439Y-90335000D01*
X75742862Y-90116534D01*
X76042297Y-89817099D01*
X79881312Y-93656114D01*
X79816887Y-93980000D01*
X79928260Y-94539909D01*
X80245423Y-95014577D01*
X80629108Y-95270947D01*
X80424866Y-95367611D01*
X80048959Y-95782577D01*
X79888096Y-96170961D01*
X80010085Y-96393000D01*
X81153000Y-96393000D01*
X81153000Y-96373000D01*
X81407000Y-96373000D01*
X81407000Y-96393000D01*
X82549915Y-96393000D01*
X82671904Y-96170961D01*
X82511041Y-95782577D01*
X82135134Y-95367611D01*
X81930892Y-95270947D01*
X82314577Y-95014577D01*
X82631740Y-94539909D01*
X82743113Y-93980000D01*
X82631740Y-93420091D01*
X82314577Y-92945423D01*
X81962242Y-92710000D01*
X82314577Y-92474577D01*
X82498043Y-92200000D01*
X83505199Y-92200000D01*
X87501312Y-96196114D01*
X87436887Y-96520000D01*
X87548260Y-97079909D01*
X87865423Y-97554577D01*
X88340091Y-97871740D01*
X88758667Y-97955000D01*
X89041333Y-97955000D01*
X89459909Y-97871740D01*
X89934577Y-97554577D01*
X90251740Y-97079909D01*
X90363113Y-96520000D01*
X90251740Y-95960091D01*
X89934577Y-95485423D01*
X89582242Y-95250000D01*
X89934577Y-95014577D01*
X90251740Y-94539909D01*
X90363113Y-93980000D01*
X90251740Y-93420091D01*
X89934577Y-92945423D01*
X89582242Y-92710000D01*
X89934577Y-92474577D01*
X89967996Y-92424561D01*
X93815000Y-92424561D01*
X93815000Y-92995439D01*
X94033466Y-93522862D01*
X94437138Y-93926534D01*
X94964561Y-94145000D01*
X95535439Y-94145000D01*
X96062862Y-93926534D01*
X96466534Y-93522862D01*
X96658655Y-93059041D01*
X99719672Y-93059041D01*
X99959197Y-93565134D01*
X100374163Y-93941041D01*
X100762547Y-94101904D01*
X100984586Y-93979915D01*
X100984586Y-92837000D01*
X101238586Y-92837000D01*
X101238586Y-93979915D01*
X101460625Y-94101904D01*
X101849009Y-93941041D01*
X102263975Y-93565134D01*
X102503500Y-93059041D01*
X102382215Y-92837000D01*
X101238586Y-92837000D01*
X100984586Y-92837000D01*
X99840957Y-92837000D01*
X99719672Y-93059041D01*
X96658655Y-93059041D01*
X96685000Y-92995439D01*
X96685000Y-92424561D01*
X96658656Y-92360959D01*
X99719672Y-92360959D01*
X99840957Y-92583000D01*
X100984586Y-92583000D01*
X100984586Y-91440085D01*
X101238586Y-91440085D01*
X101238586Y-92583000D01*
X102382215Y-92583000D01*
X102503500Y-92360959D01*
X102263975Y-91854866D01*
X101849009Y-91478959D01*
X101460625Y-91318096D01*
X101238586Y-91440085D01*
X100984586Y-91440085D01*
X100762547Y-91318096D01*
X100374163Y-91478959D01*
X99959197Y-91854866D01*
X99719672Y-92360959D01*
X96658656Y-92360959D01*
X96466534Y-91897138D01*
X96062862Y-91493466D01*
X95535439Y-91275000D01*
X94964561Y-91275000D01*
X94437138Y-91493466D01*
X94033466Y-91897138D01*
X93815000Y-92424561D01*
X89967996Y-92424561D01*
X90251740Y-91999909D01*
X90363113Y-91440000D01*
X90251740Y-90880091D01*
X89934577Y-90405423D01*
X89582242Y-90170000D01*
X89934577Y-89934577D01*
X90251740Y-89459909D01*
X90363113Y-88900000D01*
X90251740Y-88340091D01*
X89934577Y-87865423D01*
X89582242Y-87630000D01*
X89934577Y-87394577D01*
X90251740Y-86919909D01*
X90363113Y-86360000D01*
X90251740Y-85800091D01*
X90091317Y-85560000D01*
X91262560Y-85560000D01*
X91262560Y-87160000D01*
X91311843Y-87407765D01*
X91452191Y-87617809D01*
X91662235Y-87758157D01*
X91910000Y-87807440D01*
X93510000Y-87807440D01*
X93757765Y-87758157D01*
X93967809Y-87617809D01*
X94108157Y-87407765D01*
X94128101Y-87307497D01*
X94397138Y-87576534D01*
X94924561Y-87795000D01*
X95495439Y-87795000D01*
X96022862Y-87576534D01*
X96426534Y-87172862D01*
X96645000Y-86645439D01*
X96645000Y-86074561D01*
X96426534Y-85547138D01*
X96022862Y-85143466D01*
X95495439Y-84925000D01*
X94924561Y-84925000D01*
X94397138Y-85143466D01*
X94128101Y-85412503D01*
X94108157Y-85312235D01*
X93967809Y-85102191D01*
X93757765Y-84961843D01*
X93510000Y-84912560D01*
X91910000Y-84912560D01*
X91662235Y-84961843D01*
X91452191Y-85102191D01*
X91311843Y-85312235D01*
X91262560Y-85560000D01*
X90091317Y-85560000D01*
X89934577Y-85325423D01*
X89582242Y-85090000D01*
X89934577Y-84854577D01*
X90251740Y-84379909D01*
X90363113Y-83820000D01*
X90251740Y-83260091D01*
X89934577Y-82785423D01*
X89582242Y-82550000D01*
X89934577Y-82314577D01*
X90251740Y-81839909D01*
X90363113Y-81280000D01*
X90251740Y-80720091D01*
X89934577Y-80245423D01*
X89459909Y-79928260D01*
X89041333Y-79845000D01*
X88758667Y-79845000D01*
X88340091Y-79928260D01*
X87865423Y-80245423D01*
X87548260Y-80720091D01*
X87436887Y-81280000D01*
X87548260Y-81839909D01*
X87865423Y-82314577D01*
X88217758Y-82550000D01*
X87865423Y-82785423D01*
X87548260Y-83260091D01*
X87436887Y-83820000D01*
X87548260Y-84379909D01*
X87865423Y-84854577D01*
X88217758Y-85090000D01*
X87865423Y-85325423D01*
X87548260Y-85800091D01*
X87436887Y-86360000D01*
X87548260Y-86919909D01*
X87865423Y-87394577D01*
X88217758Y-87630000D01*
X87865423Y-87865423D01*
X87548260Y-88340091D01*
X87436887Y-88900000D01*
X87548260Y-89459909D01*
X87865423Y-89934577D01*
X88217758Y-90170000D01*
X87865423Y-90405423D01*
X87548260Y-90880091D01*
X87436887Y-91440000D01*
X87548260Y-91999909D01*
X87865423Y-92474577D01*
X88217758Y-92710000D01*
X87865423Y-92945423D01*
X87548260Y-93420091D01*
X87436887Y-93980000D01*
X87437405Y-93982603D01*
X84410331Y-90955530D01*
X84367929Y-90892071D01*
X84116537Y-90724096D01*
X83894852Y-90680000D01*
X83894847Y-90680000D01*
X83820000Y-90665112D01*
X83745153Y-90680000D01*
X82498043Y-90680000D01*
X82314577Y-90405423D01*
X81962242Y-90170000D01*
X82314577Y-89934577D01*
X82631740Y-89459909D01*
X82743113Y-88900000D01*
X82631740Y-88340091D01*
X82314577Y-87865423D01*
X81962242Y-87630000D01*
X82314577Y-87394577D01*
X82631740Y-86919909D01*
X82743113Y-86360000D01*
X82631740Y-85800091D01*
X82314577Y-85325423D01*
X81962242Y-85090000D01*
X82314577Y-84854577D01*
X82631740Y-84379909D01*
X82743113Y-83820000D01*
X82631740Y-83260091D01*
X82314577Y-82785423D01*
X82193894Y-82704785D01*
X82327765Y-82678157D01*
X82537809Y-82537809D01*
X82678157Y-82327765D01*
X82727440Y-82080000D01*
X82727440Y-80480000D01*
X82678157Y-80232235D01*
X82537809Y-80022191D01*
X82327765Y-79881843D01*
X82080000Y-79832560D01*
X80480000Y-79832560D01*
X80232235Y-79881843D01*
X80022191Y-80022191D01*
X79881843Y-80232235D01*
X79832560Y-80480000D01*
X79832560Y-82080000D01*
X79881843Y-82327765D01*
X80022191Y-82537809D01*
X80232235Y-82678157D01*
X80366106Y-82704785D01*
X80245423Y-82785423D01*
X79928260Y-83260091D01*
X79816887Y-83820000D01*
X79928260Y-84379909D01*
X80245423Y-84854577D01*
X80597758Y-85090000D01*
X80245423Y-85325423D01*
X79928260Y-85800091D01*
X79816887Y-86360000D01*
X79928260Y-86919909D01*
X80245423Y-87394577D01*
X80597758Y-87630000D01*
X80245423Y-87865423D01*
X79928260Y-88340091D01*
X79816887Y-88900000D01*
X79928260Y-89459909D01*
X80245423Y-89934577D01*
X80597758Y-90170000D01*
X80245423Y-90405423D01*
X79928260Y-90880091D01*
X79816887Y-91440000D01*
X79817405Y-91442603D01*
X76790331Y-88415530D01*
X76747929Y-88352071D01*
X76496537Y-88184096D01*
X76274852Y-88140000D01*
X76274847Y-88140000D01*
X76200000Y-88125112D01*
X76165136Y-88132047D01*
X76146534Y-88087138D01*
X75742862Y-87683466D01*
X75215439Y-87465000D01*
X74644561Y-87465000D01*
X74117138Y-87683466D01*
X73713466Y-88087138D01*
X73495000Y-88614561D01*
X69937172Y-88614561D01*
X69971914Y-88550959D01*
X69732389Y-88044866D01*
X69317423Y-87668959D01*
X68929039Y-87508096D01*
X68707000Y-87630085D01*
X68453000Y-87630085D01*
X68230961Y-87508096D01*
X67842577Y-87668959D01*
X67427611Y-88044866D01*
X67188086Y-88550959D01*
X58547000Y-88550959D01*
X58547000Y-78454561D01*
X67145000Y-78454561D01*
X67145000Y-79025439D01*
X67363466Y-79552862D01*
X67767138Y-79956534D01*
X68294561Y-80175000D01*
X68865439Y-80175000D01*
X69392862Y-79956534D01*
X69796534Y-79552862D01*
X70015000Y-79025439D01*
X70015000Y-78740000D01*
X73466887Y-78740000D01*
X73578260Y-79299909D01*
X73895423Y-79774577D01*
X74370091Y-80091740D01*
X74788667Y-80175000D01*
X75071333Y-80175000D01*
X75489909Y-80091740D01*
X75964577Y-79774577D01*
X76281740Y-79299909D01*
X76393113Y-78740000D01*
X76281740Y-78180091D01*
X75964577Y-77705423D01*
X75489909Y-77388260D01*
X75071333Y-77305000D01*
X74788667Y-77305000D01*
X74370091Y-77388260D01*
X73895423Y-77705423D01*
X73578260Y-78180091D01*
X73466887Y-78740000D01*
X70015000Y-78740000D01*
X70015000Y-78454561D01*
X69796534Y-77927138D01*
X69392862Y-77523466D01*
X68865439Y-77305000D01*
X68294561Y-77305000D01*
X67767138Y-77523466D01*
X67363466Y-77927138D01*
X67145000Y-78454561D01*
X58547000Y-78454561D01*
X58547000Y-72760000D01*
X67032560Y-72760000D01*
X67032560Y-74560000D01*
X67081843Y-74807765D01*
X67222191Y-75017809D01*
X67432235Y-75158157D01*
X67680000Y-75207440D01*
X69480000Y-75207440D01*
X69727765Y-75158157D01*
X69937809Y-75017809D01*
X70078157Y-74807765D01*
X70081275Y-74792092D01*
X70250493Y-74961310D01*
X70814670Y-75195000D01*
X71425330Y-75195000D01*
X71989507Y-74961310D01*
X72283072Y-74667745D01*
X80491861Y-74667745D01*
X80565995Y-74913864D01*
X81103223Y-75106965D01*
X81673454Y-75079778D01*
X82074005Y-74913864D01*
X82148139Y-74667745D01*
X81320000Y-73839605D01*
X80491861Y-74667745D01*
X72283072Y-74667745D01*
X72421310Y-74529507D01*
X72655000Y-73965330D01*
X72655000Y-73443223D01*
X79873035Y-73443223D01*
X79900222Y-74013454D01*
X80066136Y-74414005D01*
X80312255Y-74488139D01*
X81140395Y-73660000D01*
X81499605Y-73660000D01*
X82327745Y-74488139D01*
X82573864Y-74414005D01*
X82576290Y-74407254D01*
X82603466Y-74472862D01*
X83007138Y-74876534D01*
X83534561Y-75095000D01*
X84105439Y-75095000D01*
X84632862Y-74876534D01*
X85036534Y-74472862D01*
X85255000Y-73945439D01*
X85255000Y-73374561D01*
X86195000Y-73374561D01*
X86195000Y-73945439D01*
X86413466Y-74472862D01*
X86817138Y-74876534D01*
X87344561Y-75095000D01*
X87915439Y-75095000D01*
X88442862Y-74876534D01*
X88651651Y-74667745D01*
X89301861Y-74667745D01*
X89375995Y-74913864D01*
X89913223Y-75106965D01*
X90483454Y-75079778D01*
X90884005Y-74913864D01*
X90958139Y-74667745D01*
X90130000Y-73839605D01*
X89301861Y-74667745D01*
X88651651Y-74667745D01*
X88846534Y-74472862D01*
X88873525Y-74407701D01*
X88876136Y-74414005D01*
X89122255Y-74488139D01*
X89950395Y-73660000D01*
X90309605Y-73660000D01*
X91137745Y-74488139D01*
X91383864Y-74414005D01*
X91576965Y-73876777D01*
X91553021Y-73374561D01*
X92545000Y-73374561D01*
X92545000Y-73945439D01*
X92763466Y-74472862D01*
X93167138Y-74876534D01*
X93694561Y-75095000D01*
X94265439Y-75095000D01*
X94792862Y-74876534D01*
X95001651Y-74667745D01*
X95651861Y-74667745D01*
X95725995Y-74913864D01*
X96263223Y-75106965D01*
X96833454Y-75079778D01*
X97234005Y-74913864D01*
X97308139Y-74667745D01*
X96480000Y-73839605D01*
X95651861Y-74667745D01*
X95001651Y-74667745D01*
X95196534Y-74472862D01*
X95223525Y-74407701D01*
X95226136Y-74414005D01*
X95472255Y-74488139D01*
X96300395Y-73660000D01*
X96659605Y-73660000D01*
X97487745Y-74488139D01*
X97733864Y-74414005D01*
X97926965Y-73876777D01*
X97899778Y-73306546D01*
X97733864Y-72905995D01*
X97487745Y-72831861D01*
X96659605Y-73660000D01*
X96300395Y-73660000D01*
X95472255Y-72831861D01*
X95226136Y-72905995D01*
X95223710Y-72912746D01*
X95196534Y-72847138D01*
X95001651Y-72652255D01*
X95651861Y-72652255D01*
X96480000Y-73480395D01*
X97308139Y-72652255D01*
X97234005Y-72406136D01*
X96696777Y-72213035D01*
X96126546Y-72240222D01*
X95725995Y-72406136D01*
X95651861Y-72652255D01*
X95001651Y-72652255D01*
X94792862Y-72443466D01*
X94265439Y-72225000D01*
X93694561Y-72225000D01*
X93167138Y-72443466D01*
X92763466Y-72847138D01*
X92545000Y-73374561D01*
X91553021Y-73374561D01*
X91549778Y-73306546D01*
X91383864Y-72905995D01*
X91137745Y-72831861D01*
X90309605Y-73660000D01*
X89950395Y-73660000D01*
X89122255Y-72831861D01*
X88876136Y-72905995D01*
X88873710Y-72912746D01*
X88846534Y-72847138D01*
X88651651Y-72652255D01*
X89301861Y-72652255D01*
X90130000Y-73480395D01*
X90958139Y-72652255D01*
X90884005Y-72406136D01*
X90346777Y-72213035D01*
X89776546Y-72240222D01*
X89375995Y-72406136D01*
X89301861Y-72652255D01*
X88651651Y-72652255D01*
X88442862Y-72443466D01*
X87915439Y-72225000D01*
X87344561Y-72225000D01*
X86817138Y-72443466D01*
X86413466Y-72847138D01*
X86195000Y-73374561D01*
X85255000Y-73374561D01*
X85036534Y-72847138D01*
X84632862Y-72443466D01*
X84105439Y-72225000D01*
X83534561Y-72225000D01*
X83007138Y-72443466D01*
X82603466Y-72847138D01*
X82576475Y-72912299D01*
X82573864Y-72905995D01*
X82327745Y-72831861D01*
X81499605Y-73660000D01*
X81140395Y-73660000D01*
X80312255Y-72831861D01*
X80066136Y-72905995D01*
X79873035Y-73443223D01*
X72655000Y-73443223D01*
X72655000Y-73354670D01*
X72421310Y-72790493D01*
X72283072Y-72652255D01*
X80491861Y-72652255D01*
X81320000Y-73480395D01*
X82148139Y-72652255D01*
X82074005Y-72406136D01*
X81536777Y-72213035D01*
X80966546Y-72240222D01*
X80565995Y-72406136D01*
X80491861Y-72652255D01*
X72283072Y-72652255D01*
X71989507Y-72358690D01*
X71425330Y-72125000D01*
X70814670Y-72125000D01*
X70250493Y-72358690D01*
X70081275Y-72527908D01*
X70078157Y-72512235D01*
X69937809Y-72302191D01*
X69727765Y-72161843D01*
X69480000Y-72112560D01*
X67680000Y-72112560D01*
X67432235Y-72161843D01*
X67222191Y-72302191D01*
X67081843Y-72512235D01*
X67032560Y-72760000D01*
X58547000Y-72760000D01*
X58547000Y-66060320D01*
X73032880Y-66060320D01*
X73032880Y-68559680D01*
X73082163Y-68807445D01*
X73222511Y-69017489D01*
X73432555Y-69157837D01*
X73680320Y-69207120D01*
X76179680Y-69207120D01*
X76427445Y-69157837D01*
X76637489Y-69017489D01*
X76777837Y-68807445D01*
X76804261Y-68674601D01*
X77037415Y-68907755D01*
X77730114Y-69194680D01*
X78479886Y-69194680D01*
X79172585Y-68907755D01*
X79692500Y-68387840D01*
X80212415Y-68907755D01*
X80905114Y-69194680D01*
X81654886Y-69194680D01*
X82347585Y-68907755D01*
X82877755Y-68377585D01*
X83164680Y-67684886D01*
X83164680Y-66935114D01*
X82877755Y-66242415D01*
X82695660Y-66060320D01*
X87002880Y-66060320D01*
X87002880Y-68559680D01*
X87052163Y-68807445D01*
X87192511Y-69017489D01*
X87402555Y-69157837D01*
X87650320Y-69207120D01*
X90149680Y-69207120D01*
X90397445Y-69157837D01*
X90607489Y-69017489D01*
X90747837Y-68807445D01*
X90774261Y-68674601D01*
X91007415Y-68907755D01*
X91700114Y-69194680D01*
X92449886Y-69194680D01*
X93142585Y-68907755D01*
X93662500Y-68387840D01*
X94182415Y-68907755D01*
X94875114Y-69194680D01*
X95624886Y-69194680D01*
X96317585Y-68907755D01*
X96847755Y-68377585D01*
X97134680Y-67684886D01*
X97134680Y-66935114D01*
X96847755Y-66242415D01*
X96317585Y-65712245D01*
X95624886Y-65425320D01*
X94875114Y-65425320D01*
X94182415Y-65712245D01*
X93662500Y-66232160D01*
X93142585Y-65712245D01*
X92449886Y-65425320D01*
X91700114Y-65425320D01*
X91007415Y-65712245D01*
X90774261Y-65945399D01*
X90747837Y-65812555D01*
X90607489Y-65602511D01*
X90397445Y-65462163D01*
X90149680Y-65412880D01*
X87650320Y-65412880D01*
X87402555Y-65462163D01*
X87192511Y-65602511D01*
X87052163Y-65812555D01*
X87002880Y-66060320D01*
X82695660Y-66060320D01*
X82347585Y-65712245D01*
X81654886Y-65425320D01*
X80905114Y-65425320D01*
X80212415Y-65712245D01*
X79692500Y-66232160D01*
X79172585Y-65712245D01*
X78479886Y-65425320D01*
X77730114Y-65425320D01*
X77037415Y-65712245D01*
X76804261Y-65945399D01*
X76777837Y-65812555D01*
X76637489Y-65602511D01*
X76427445Y-65462163D01*
X76179680Y-65412880D01*
X73680320Y-65412880D01*
X73432555Y-65462163D01*
X73222511Y-65602511D01*
X73082163Y-65812555D01*
X73032880Y-66060320D01*
X58547000Y-66060320D01*
X58547000Y-56705431D01*
X58725000Y-56705431D01*
X58725000Y-57594569D01*
X59065259Y-58416026D01*
X59693974Y-59044741D01*
X60515431Y-59385000D01*
X61404569Y-59385000D01*
X62226026Y-59044741D01*
X62854741Y-58416026D01*
X63195000Y-57594569D01*
X63195000Y-56705431D01*
X128575000Y-56705431D01*
X128575000Y-57594569D01*
X128915259Y-58416026D01*
X129543974Y-59044741D01*
X130365431Y-59385000D01*
X131254569Y-59385000D01*
X132076026Y-59044741D01*
X132704741Y-58416026D01*
X133045000Y-57594569D01*
X133045000Y-56705431D01*
X132704741Y-55883974D01*
X132076026Y-55255259D01*
X131254569Y-54915000D01*
X130365431Y-54915000D01*
X129543974Y-55255259D01*
X128915259Y-55883974D01*
X128575000Y-56705431D01*
X63195000Y-56705431D01*
X62854741Y-55883974D01*
X62226026Y-55255259D01*
X61404569Y-54915000D01*
X60515431Y-54915000D01*
X59693974Y-55255259D01*
X59065259Y-55883974D01*
X58725000Y-56705431D01*
X58547000Y-56705431D01*
X58547000Y-54737000D01*
X133223000Y-54737000D01*
X133223000Y-123063000D01*
X133223000Y-123063000D01*
G37*
X133223000Y-123063000D02*
X58547000Y-123063000D01*
X58547000Y-120205431D01*
X58725000Y-120205431D01*
X58725000Y-121094569D01*
X59065259Y-121916026D01*
X59693974Y-122544741D01*
X60515431Y-122885000D01*
X61404569Y-122885000D01*
X62226026Y-122544741D01*
X62854741Y-121916026D01*
X63195000Y-121094569D01*
X63195000Y-120205431D01*
X128575000Y-120205431D01*
X128575000Y-121094569D01*
X128915259Y-121916026D01*
X129543974Y-122544741D01*
X130365431Y-122885000D01*
X131254569Y-122885000D01*
X132076026Y-122544741D01*
X132704741Y-121916026D01*
X133045000Y-121094569D01*
X133045000Y-120205431D01*
X132704741Y-119383974D01*
X132076026Y-118755259D01*
X131254569Y-118415000D01*
X130365431Y-118415000D01*
X129543974Y-118755259D01*
X128915259Y-119383974D01*
X128575000Y-120205431D01*
X63195000Y-120205431D01*
X62854741Y-119383974D01*
X62226026Y-118755259D01*
X61404569Y-118415000D01*
X60515431Y-118415000D01*
X59693974Y-118755259D01*
X59065259Y-119383974D01*
X58725000Y-120205431D01*
X58547000Y-120205431D01*
X58547000Y-106965750D01*
X66695320Y-106965750D01*
X66695320Y-108055989D01*
X66791993Y-108289378D01*
X66970621Y-108468007D01*
X67204010Y-108564680D01*
X68294250Y-108564680D01*
X68453000Y-108405930D01*
X68453000Y-106807000D01*
X68707000Y-106807000D01*
X68707000Y-108405930D01*
X68865750Y-108564680D01*
X69955990Y-108564680D01*
X70189379Y-108468007D01*
X70368007Y-108289378D01*
X70464680Y-108055989D01*
X70464680Y-106965750D01*
X73045320Y-106965750D01*
X73045320Y-108055989D01*
X73141993Y-108289378D01*
X73320621Y-108468007D01*
X73554010Y-108564680D01*
X74644250Y-108564680D01*
X74803000Y-108405930D01*
X74803000Y-106807000D01*
X75057000Y-106807000D01*
X75057000Y-108405930D01*
X75215750Y-108564680D01*
X76305990Y-108564680D01*
X76539379Y-108468007D01*
X76718007Y-108289378D01*
X76814680Y-108055989D01*
X76814680Y-106965750D01*
X79395320Y-106965750D01*
X79395320Y-108055989D01*
X79491993Y-108289378D01*
X79670621Y-108468007D01*
X79904010Y-108564680D01*
X80994250Y-108564680D01*
X81153000Y-108405930D01*
X81153000Y-106807000D01*
X81407000Y-106807000D01*
X81407000Y-108405930D01*
X81565750Y-108564680D01*
X82655990Y-108564680D01*
X82889379Y-108468007D01*
X83068007Y-108289378D01*
X83164680Y-108055989D01*
X83164680Y-106965750D01*
X85745320Y-106965750D01*
X85745320Y-108055989D01*
X85841993Y-108289378D01*
X86020621Y-108468007D01*
X86254010Y-108564680D01*
X87344250Y-108564680D01*
X87503000Y-108405930D01*
X87503000Y-106807000D01*
X87757000Y-106807000D01*
X87757000Y-108405930D01*
X87915750Y-108564680D01*
X89005990Y-108564680D01*
X89239379Y-108468007D01*
X89418007Y-108289378D01*
X89514680Y-108055989D01*
X89514680Y-106965750D01*
X89355930Y-106807000D01*
X87757000Y-106807000D01*
X87503000Y-106807000D01*
X85904070Y-106807000D01*
X85745320Y-106965750D01*
X83164680Y-106965750D01*
X83005930Y-106807000D01*
X81407000Y-106807000D01*
X81153000Y-106807000D01*
X79554070Y-106807000D01*
X79395320Y-106965750D01*
X76814680Y-106965750D01*
X76655930Y-106807000D01*
X75057000Y-106807000D01*
X74803000Y-106807000D01*
X73204070Y-106807000D01*
X73045320Y-106965750D01*
X70464680Y-106965750D01*
X70305930Y-106807000D01*
X68707000Y-106807000D01*
X68453000Y-106807000D01*
X66854070Y-106807000D01*
X66695320Y-106965750D01*
X58547000Y-106965750D01*
X58547000Y-105304011D01*
X66695320Y-105304011D01*
X66695320Y-106394250D01*
X66854070Y-106553000D01*
X68453000Y-106553000D01*
X68453000Y-104954070D01*
X68707000Y-104954070D01*
X68707000Y-106553000D01*
X70305930Y-106553000D01*
X70464680Y-106394250D01*
X70464680Y-105304011D01*
X73045320Y-105304011D01*
X73045320Y-106394250D01*
X73204070Y-106553000D01*
X74803000Y-106553000D01*
X74803000Y-104954070D01*
X75057000Y-104954070D01*
X75057000Y-106553000D01*
X76655930Y-106553000D01*
X76814680Y-106394250D01*
X76814680Y-105304011D01*
X79395320Y-105304011D01*
X79395320Y-106394250D01*
X79554070Y-106553000D01*
X81153000Y-106553000D01*
X81153000Y-104954070D01*
X81407000Y-104954070D01*
X81407000Y-106553000D01*
X83005930Y-106553000D01*
X83164680Y-106394250D01*
X83164680Y-105304011D01*
X85745320Y-105304011D01*
X85745320Y-106394250D01*
X85904070Y-106553000D01*
X87503000Y-106553000D01*
X87503000Y-104954070D01*
X87757000Y-104954070D01*
X87757000Y-106553000D01*
X89355930Y-106553000D01*
X89514680Y-106394250D01*
X89514680Y-105304011D01*
X89418007Y-105070622D01*
X89239379Y-104891993D01*
X89005990Y-104795320D01*
X87915750Y-104795320D01*
X87757000Y-104954070D01*
X87503000Y-104954070D01*
X87344250Y-104795320D01*
X86254010Y-104795320D01*
X86020621Y-104891993D01*
X85841993Y-105070622D01*
X85745320Y-105304011D01*
X83164680Y-105304011D01*
X83068007Y-105070622D01*
X82889379Y-104891993D01*
X82655990Y-104795320D01*
X81565750Y-104795320D01*
X81407000Y-104954070D01*
X81153000Y-104954070D01*
X80994250Y-104795320D01*
X79904010Y-104795320D01*
X79670621Y-104891993D01*
X79491993Y-105070622D01*
X79395320Y-105304011D01*
X76814680Y-105304011D01*
X76718007Y-105070622D01*
X76539379Y-104891993D01*
X76305990Y-104795320D01*
X75215750Y-104795320D01*
X75057000Y-104954070D01*
X74803000Y-104954070D01*
X74644250Y-104795320D01*
X73554010Y-104795320D01*
X73320621Y-104891993D01*
X73141993Y-105070622D01*
X73045320Y-105304011D01*
X70464680Y-105304011D01*
X70368007Y-105070622D01*
X70189379Y-104891993D01*
X69955990Y-104795320D01*
X68865750Y-104795320D01*
X68707000Y-104954070D01*
X68453000Y-104954070D01*
X68294250Y-104795320D01*
X67204010Y-104795320D01*
X66970621Y-104891993D01*
X66791993Y-105070622D01*
X66695320Y-105304011D01*
X58547000Y-105304011D01*
X58547000Y-102495114D01*
X66695320Y-102495114D01*
X66695320Y-103244886D01*
X66982245Y-103937585D01*
X67512415Y-104467755D01*
X68205114Y-104754680D01*
X68954886Y-104754680D01*
X69647585Y-104467755D01*
X70177755Y-103937585D01*
X70464680Y-103244886D01*
X70464680Y-102495114D01*
X73045320Y-102495114D01*
X73045320Y-103244886D01*
X73332245Y-103937585D01*
X73862415Y-104467755D01*
X74555114Y-104754680D01*
X75304886Y-104754680D01*
X75997585Y-104467755D01*
X76527755Y-103937585D01*
X76814680Y-103244886D01*
X76814680Y-102495114D01*
X79395320Y-102495114D01*
X79395320Y-103244886D01*
X79682245Y-103937585D01*
X80212415Y-104467755D01*
X80905114Y-104754680D01*
X81654886Y-104754680D01*
X82347585Y-104467755D01*
X82877755Y-103937585D01*
X83164680Y-103244886D01*
X83164680Y-102495114D01*
X85745320Y-102495114D01*
X85745320Y-103244886D01*
X86032245Y-103937585D01*
X86562415Y-104467755D01*
X87255114Y-104754680D01*
X88004886Y-104754680D01*
X88697585Y-104467755D01*
X89227755Y-103937585D01*
X89514680Y-103244886D01*
X89514680Y-102870000D01*
X93786887Y-102870000D01*
X93898260Y-103429909D01*
X94215423Y-103904577D01*
X94690091Y-104221740D01*
X95108667Y-104305000D01*
X95391333Y-104305000D01*
X95809909Y-104221740D01*
X96284577Y-103904577D01*
X96601740Y-103429909D01*
X96713113Y-102870000D01*
X96656336Y-102584561D01*
X99676586Y-102584561D01*
X99676586Y-103155439D01*
X99895052Y-103682862D01*
X100298724Y-104086534D01*
X100826147Y-104305000D01*
X101397025Y-104305000D01*
X101924448Y-104086534D01*
X102328120Y-103682862D01*
X102546586Y-103155439D01*
X102546586Y-102584561D01*
X102328120Y-102057138D01*
X101924448Y-101653466D01*
X101397025Y-101435000D01*
X100826147Y-101435000D01*
X100298724Y-101653466D01*
X99895052Y-102057138D01*
X99676586Y-102584561D01*
X96656336Y-102584561D01*
X96601740Y-102310091D01*
X96284577Y-101835423D01*
X95809909Y-101518260D01*
X95391333Y-101435000D01*
X95108667Y-101435000D01*
X94690091Y-101518260D01*
X94215423Y-101835423D01*
X93898260Y-102310091D01*
X93786887Y-102870000D01*
X89514680Y-102870000D01*
X89514680Y-102495114D01*
X89227755Y-101802415D01*
X88697585Y-101272245D01*
X88004886Y-100985320D01*
X87255114Y-100985320D01*
X86562415Y-101272245D01*
X86032245Y-101802415D01*
X85745320Y-102495114D01*
X83164680Y-102495114D01*
X82877755Y-101802415D01*
X82347585Y-101272245D01*
X81654886Y-100985320D01*
X80905114Y-100985320D01*
X80212415Y-101272245D01*
X79682245Y-101802415D01*
X79395320Y-102495114D01*
X76814680Y-102495114D01*
X76527755Y-101802415D01*
X75997585Y-101272245D01*
X75304886Y-100985320D01*
X74555114Y-100985320D01*
X73862415Y-101272245D01*
X73332245Y-101802415D01*
X73045320Y-102495114D01*
X70464680Y-102495114D01*
X70177755Y-101802415D01*
X69647585Y-101272245D01*
X68954886Y-100985320D01*
X68205114Y-100985320D01*
X67512415Y-101272245D01*
X66982245Y-101802415D01*
X66695320Y-102495114D01*
X58547000Y-102495114D01*
X58547000Y-96540320D01*
X66682880Y-96540320D01*
X66682880Y-99039680D01*
X66732163Y-99287445D01*
X66872511Y-99497489D01*
X67082555Y-99637837D01*
X67330320Y-99687120D01*
X69829680Y-99687120D01*
X70077445Y-99637837D01*
X70287489Y-99497489D01*
X70427837Y-99287445D01*
X70477120Y-99039680D01*
X70477120Y-97487745D01*
X74101861Y-97487745D01*
X74175995Y-97733864D01*
X74713223Y-97926965D01*
X75283454Y-97899778D01*
X75684005Y-97733864D01*
X75758139Y-97487745D01*
X74930000Y-96659605D01*
X74101861Y-97487745D01*
X70477120Y-97487745D01*
X70477120Y-96540320D01*
X70427837Y-96292555D01*
X70408238Y-96263223D01*
X73483035Y-96263223D01*
X73510222Y-96833454D01*
X73676136Y-97234005D01*
X73922255Y-97308139D01*
X74750395Y-96480000D01*
X75109605Y-96480000D01*
X75937745Y-97308139D01*
X76183864Y-97234005D01*
X76315047Y-96869039D01*
X79888096Y-96869039D01*
X80048959Y-97257423D01*
X80424866Y-97672389D01*
X80930959Y-97911914D01*
X81153000Y-97790629D01*
X81153000Y-96647000D01*
X81407000Y-96647000D01*
X81407000Y-97790629D01*
X81629041Y-97911914D01*
X82135134Y-97672389D01*
X82511041Y-97257423D01*
X82671904Y-96869039D01*
X82549915Y-96647000D01*
X81407000Y-96647000D01*
X81153000Y-96647000D01*
X80010085Y-96647000D01*
X79888096Y-96869039D01*
X76315047Y-96869039D01*
X76376965Y-96696777D01*
X76349778Y-96126546D01*
X76183864Y-95725995D01*
X75937745Y-95651861D01*
X75109605Y-96480000D01*
X74750395Y-96480000D01*
X73922255Y-95651861D01*
X73676136Y-95725995D01*
X73483035Y-96263223D01*
X70408238Y-96263223D01*
X70287489Y-96082511D01*
X70077445Y-95942163D01*
X69829680Y-95892880D01*
X67330320Y-95892880D01*
X67082555Y-95942163D01*
X66872511Y-96082511D01*
X66732163Y-96292555D01*
X66682880Y-96540320D01*
X58547000Y-96540320D01*
X58547000Y-93605114D01*
X66695320Y-93605114D01*
X66695320Y-94354886D01*
X66982245Y-95047585D01*
X67512415Y-95577755D01*
X68205114Y-95864680D01*
X68954886Y-95864680D01*
X69647585Y-95577755D01*
X70177755Y-95047585D01*
X70464680Y-94354886D01*
X70464680Y-93605114D01*
X70288593Y-93180000D01*
X73482560Y-93180000D01*
X73482560Y-94780000D01*
X73531843Y-95027765D01*
X73672191Y-95237809D01*
X73882235Y-95378157D01*
X74116187Y-95424693D01*
X74101861Y-95472255D01*
X74930000Y-96300395D01*
X75758139Y-95472255D01*
X75743813Y-95424693D01*
X75977765Y-95378157D01*
X76187809Y-95237809D01*
X76328157Y-95027765D01*
X76377440Y-94780000D01*
X76377440Y-93180000D01*
X76328157Y-92932235D01*
X76187809Y-92722191D01*
X75977765Y-92581843D01*
X75730000Y-92532560D01*
X74130000Y-92532560D01*
X73882235Y-92581843D01*
X73672191Y-92722191D01*
X73531843Y-92932235D01*
X73482560Y-93180000D01*
X70288593Y-93180000D01*
X70177755Y-92912415D01*
X69647585Y-92382245D01*
X68954886Y-92095320D01*
X68205114Y-92095320D01*
X67512415Y-92382245D01*
X66982245Y-92912415D01*
X66695320Y-93605114D01*
X58547000Y-93605114D01*
X58547000Y-89249041D01*
X67188086Y-89249041D01*
X67427611Y-89755134D01*
X67842577Y-90131041D01*
X68230961Y-90291904D01*
X68453000Y-90169915D01*
X68453000Y-89027000D01*
X68707000Y-89027000D01*
X68707000Y-90169915D01*
X68929039Y-90291904D01*
X69317423Y-90131041D01*
X69732389Y-89755134D01*
X69971914Y-89249041D01*
X69850629Y-89027000D01*
X68707000Y-89027000D01*
X68453000Y-89027000D01*
X67309371Y-89027000D01*
X67188086Y-89249041D01*
X58547000Y-89249041D01*
X58547000Y-88550959D01*
X67188086Y-88550959D01*
X67309371Y-88773000D01*
X68453000Y-88773000D01*
X68453000Y-87630085D01*
X68707000Y-87630085D01*
X68707000Y-88773000D01*
X69850629Y-88773000D01*
X69937172Y-88614561D01*
X73495000Y-88614561D01*
X73495000Y-89185439D01*
X73713466Y-89712862D01*
X74117138Y-90116534D01*
X74644561Y-90335000D01*
X75215439Y-90335000D01*
X75742862Y-90116534D01*
X76042297Y-89817099D01*
X79881312Y-93656114D01*
X79816887Y-93980000D01*
X79928260Y-94539909D01*
X80245423Y-95014577D01*
X80629108Y-95270947D01*
X80424866Y-95367611D01*
X80048959Y-95782577D01*
X79888096Y-96170961D01*
X80010085Y-96393000D01*
X81153000Y-96393000D01*
X81153000Y-96373000D01*
X81407000Y-96373000D01*
X81407000Y-96393000D01*
X82549915Y-96393000D01*
X82671904Y-96170961D01*
X82511041Y-95782577D01*
X82135134Y-95367611D01*
X81930892Y-95270947D01*
X82314577Y-95014577D01*
X82631740Y-94539909D01*
X82743113Y-93980000D01*
X82631740Y-93420091D01*
X82314577Y-92945423D01*
X81962242Y-92710000D01*
X82314577Y-92474577D01*
X82498043Y-92200000D01*
X83505199Y-92200000D01*
X87501312Y-96196114D01*
X87436887Y-96520000D01*
X87548260Y-97079909D01*
X87865423Y-97554577D01*
X88340091Y-97871740D01*
X88758667Y-97955000D01*
X89041333Y-97955000D01*
X89459909Y-97871740D01*
X89934577Y-97554577D01*
X90251740Y-97079909D01*
X90363113Y-96520000D01*
X90251740Y-95960091D01*
X89934577Y-95485423D01*
X89582242Y-95250000D01*
X89934577Y-95014577D01*
X90251740Y-94539909D01*
X90363113Y-93980000D01*
X90251740Y-93420091D01*
X89934577Y-92945423D01*
X89582242Y-92710000D01*
X89934577Y-92474577D01*
X89967996Y-92424561D01*
X93815000Y-92424561D01*
X93815000Y-92995439D01*
X94033466Y-93522862D01*
X94437138Y-93926534D01*
X94964561Y-94145000D01*
X95535439Y-94145000D01*
X96062862Y-93926534D01*
X96466534Y-93522862D01*
X96658655Y-93059041D01*
X99719672Y-93059041D01*
X99959197Y-93565134D01*
X100374163Y-93941041D01*
X100762547Y-94101904D01*
X100984586Y-93979915D01*
X100984586Y-92837000D01*
X101238586Y-92837000D01*
X101238586Y-93979915D01*
X101460625Y-94101904D01*
X101849009Y-93941041D01*
X102263975Y-93565134D01*
X102503500Y-93059041D01*
X102382215Y-92837000D01*
X101238586Y-92837000D01*
X100984586Y-92837000D01*
X99840957Y-92837000D01*
X99719672Y-93059041D01*
X96658655Y-93059041D01*
X96685000Y-92995439D01*
X96685000Y-92424561D01*
X96658656Y-92360959D01*
X99719672Y-92360959D01*
X99840957Y-92583000D01*
X100984586Y-92583000D01*
X100984586Y-91440085D01*
X101238586Y-91440085D01*
X101238586Y-92583000D01*
X102382215Y-92583000D01*
X102503500Y-92360959D01*
X102263975Y-91854866D01*
X101849009Y-91478959D01*
X101460625Y-91318096D01*
X101238586Y-91440085D01*
X100984586Y-91440085D01*
X100762547Y-91318096D01*
X100374163Y-91478959D01*
X99959197Y-91854866D01*
X99719672Y-92360959D01*
X96658656Y-92360959D01*
X96466534Y-91897138D01*
X96062862Y-91493466D01*
X95535439Y-91275000D01*
X94964561Y-91275000D01*
X94437138Y-91493466D01*
X94033466Y-91897138D01*
X93815000Y-92424561D01*
X89967996Y-92424561D01*
X90251740Y-91999909D01*
X90363113Y-91440000D01*
X90251740Y-90880091D01*
X89934577Y-90405423D01*
X89582242Y-90170000D01*
X89934577Y-89934577D01*
X90251740Y-89459909D01*
X90363113Y-88900000D01*
X90251740Y-88340091D01*
X89934577Y-87865423D01*
X89582242Y-87630000D01*
X89934577Y-87394577D01*
X90251740Y-86919909D01*
X90363113Y-86360000D01*
X90251740Y-85800091D01*
X90091317Y-85560000D01*
X91262560Y-85560000D01*
X91262560Y-87160000D01*
X91311843Y-87407765D01*
X91452191Y-87617809D01*
X91662235Y-87758157D01*
X91910000Y-87807440D01*
X93510000Y-87807440D01*
X93757765Y-87758157D01*
X93967809Y-87617809D01*
X94108157Y-87407765D01*
X94128101Y-87307497D01*
X94397138Y-87576534D01*
X94924561Y-87795000D01*
X95495439Y-87795000D01*
X96022862Y-87576534D01*
X96426534Y-87172862D01*
X96645000Y-86645439D01*
X96645000Y-86074561D01*
X96426534Y-85547138D01*
X96022862Y-85143466D01*
X95495439Y-84925000D01*
X94924561Y-84925000D01*
X94397138Y-85143466D01*
X94128101Y-85412503D01*
X94108157Y-85312235D01*
X93967809Y-85102191D01*
X93757765Y-84961843D01*
X93510000Y-84912560D01*
X91910000Y-84912560D01*
X91662235Y-84961843D01*
X91452191Y-85102191D01*
X91311843Y-85312235D01*
X91262560Y-85560000D01*
X90091317Y-85560000D01*
X89934577Y-85325423D01*
X89582242Y-85090000D01*
X89934577Y-84854577D01*
X90251740Y-84379909D01*
X90363113Y-83820000D01*
X90251740Y-83260091D01*
X89934577Y-82785423D01*
X89582242Y-82550000D01*
X89934577Y-82314577D01*
X90251740Y-81839909D01*
X90363113Y-81280000D01*
X90251740Y-80720091D01*
X89934577Y-80245423D01*
X89459909Y-79928260D01*
X89041333Y-79845000D01*
X88758667Y-79845000D01*
X88340091Y-79928260D01*
X87865423Y-80245423D01*
X87548260Y-80720091D01*
X87436887Y-81280000D01*
X87548260Y-81839909D01*
X87865423Y-82314577D01*
X88217758Y-82550000D01*
X87865423Y-82785423D01*
X87548260Y-83260091D01*
X87436887Y-83820000D01*
X87548260Y-84379909D01*
X87865423Y-84854577D01*
X88217758Y-85090000D01*
X87865423Y-85325423D01*
X87548260Y-85800091D01*
X87436887Y-86360000D01*
X87548260Y-86919909D01*
X87865423Y-87394577D01*
X88217758Y-87630000D01*
X87865423Y-87865423D01*
X87548260Y-88340091D01*
X87436887Y-88900000D01*
X87548260Y-89459909D01*
X87865423Y-89934577D01*
X88217758Y-90170000D01*
X87865423Y-90405423D01*
X87548260Y-90880091D01*
X87436887Y-91440000D01*
X87548260Y-91999909D01*
X87865423Y-92474577D01*
X88217758Y-92710000D01*
X87865423Y-92945423D01*
X87548260Y-93420091D01*
X87436887Y-93980000D01*
X87437405Y-93982603D01*
X84410331Y-90955530D01*
X84367929Y-90892071D01*
X84116537Y-90724096D01*
X83894852Y-90680000D01*
X83894847Y-90680000D01*
X83820000Y-90665112D01*
X83745153Y-90680000D01*
X82498043Y-90680000D01*
X82314577Y-90405423D01*
X81962242Y-90170000D01*
X82314577Y-89934577D01*
X82631740Y-89459909D01*
X82743113Y-88900000D01*
X82631740Y-88340091D01*
X82314577Y-87865423D01*
X81962242Y-87630000D01*
X82314577Y-87394577D01*
X82631740Y-86919909D01*
X82743113Y-86360000D01*
X82631740Y-85800091D01*
X82314577Y-85325423D01*
X81962242Y-85090000D01*
X82314577Y-84854577D01*
X82631740Y-84379909D01*
X82743113Y-83820000D01*
X82631740Y-83260091D01*
X82314577Y-82785423D01*
X82193894Y-82704785D01*
X82327765Y-82678157D01*
X82537809Y-82537809D01*
X82678157Y-82327765D01*
X82727440Y-82080000D01*
X82727440Y-80480000D01*
X82678157Y-80232235D01*
X82537809Y-80022191D01*
X82327765Y-79881843D01*
X82080000Y-79832560D01*
X80480000Y-79832560D01*
X80232235Y-79881843D01*
X80022191Y-80022191D01*
X79881843Y-80232235D01*
X79832560Y-80480000D01*
X79832560Y-82080000D01*
X79881843Y-82327765D01*
X80022191Y-82537809D01*
X80232235Y-82678157D01*
X80366106Y-82704785D01*
X80245423Y-82785423D01*
X79928260Y-83260091D01*
X79816887Y-83820000D01*
X79928260Y-84379909D01*
X80245423Y-84854577D01*
X80597758Y-85090000D01*
X80245423Y-85325423D01*
X79928260Y-85800091D01*
X79816887Y-86360000D01*
X79928260Y-86919909D01*
X80245423Y-87394577D01*
X80597758Y-87630000D01*
X80245423Y-87865423D01*
X79928260Y-88340091D01*
X79816887Y-88900000D01*
X79928260Y-89459909D01*
X80245423Y-89934577D01*
X80597758Y-90170000D01*
X80245423Y-90405423D01*
X79928260Y-90880091D01*
X79816887Y-91440000D01*
X79817405Y-91442603D01*
X76790331Y-88415530D01*
X76747929Y-88352071D01*
X76496537Y-88184096D01*
X76274852Y-88140000D01*
X76274847Y-88140000D01*
X76200000Y-88125112D01*
X76165136Y-88132047D01*
X76146534Y-88087138D01*
X75742862Y-87683466D01*
X75215439Y-87465000D01*
X74644561Y-87465000D01*
X74117138Y-87683466D01*
X73713466Y-88087138D01*
X73495000Y-88614561D01*
X69937172Y-88614561D01*
X69971914Y-88550959D01*
X69732389Y-88044866D01*
X69317423Y-87668959D01*
X68929039Y-87508096D01*
X68707000Y-87630085D01*
X68453000Y-87630085D01*
X68230961Y-87508096D01*
X67842577Y-87668959D01*
X67427611Y-88044866D01*
X67188086Y-88550959D01*
X58547000Y-88550959D01*
X58547000Y-78454561D01*
X67145000Y-78454561D01*
X67145000Y-79025439D01*
X67363466Y-79552862D01*
X67767138Y-79956534D01*
X68294561Y-80175000D01*
X68865439Y-80175000D01*
X69392862Y-79956534D01*
X69796534Y-79552862D01*
X70015000Y-79025439D01*
X70015000Y-78740000D01*
X73466887Y-78740000D01*
X73578260Y-79299909D01*
X73895423Y-79774577D01*
X74370091Y-80091740D01*
X74788667Y-80175000D01*
X75071333Y-80175000D01*
X75489909Y-80091740D01*
X75964577Y-79774577D01*
X76281740Y-79299909D01*
X76393113Y-78740000D01*
X76281740Y-78180091D01*
X75964577Y-77705423D01*
X75489909Y-77388260D01*
X75071333Y-77305000D01*
X74788667Y-77305000D01*
X74370091Y-77388260D01*
X73895423Y-77705423D01*
X73578260Y-78180091D01*
X73466887Y-78740000D01*
X70015000Y-78740000D01*
X70015000Y-78454561D01*
X69796534Y-77927138D01*
X69392862Y-77523466D01*
X68865439Y-77305000D01*
X68294561Y-77305000D01*
X67767138Y-77523466D01*
X67363466Y-77927138D01*
X67145000Y-78454561D01*
X58547000Y-78454561D01*
X58547000Y-72760000D01*
X67032560Y-72760000D01*
X67032560Y-74560000D01*
X67081843Y-74807765D01*
X67222191Y-75017809D01*
X67432235Y-75158157D01*
X67680000Y-75207440D01*
X69480000Y-75207440D01*
X69727765Y-75158157D01*
X69937809Y-75017809D01*
X70078157Y-74807765D01*
X70081275Y-74792092D01*
X70250493Y-74961310D01*
X70814670Y-75195000D01*
X71425330Y-75195000D01*
X71989507Y-74961310D01*
X72283072Y-74667745D01*
X80491861Y-74667745D01*
X80565995Y-74913864D01*
X81103223Y-75106965D01*
X81673454Y-75079778D01*
X82074005Y-74913864D01*
X82148139Y-74667745D01*
X81320000Y-73839605D01*
X80491861Y-74667745D01*
X72283072Y-74667745D01*
X72421310Y-74529507D01*
X72655000Y-73965330D01*
X72655000Y-73443223D01*
X79873035Y-73443223D01*
X79900222Y-74013454D01*
X80066136Y-74414005D01*
X80312255Y-74488139D01*
X81140395Y-73660000D01*
X81499605Y-73660000D01*
X82327745Y-74488139D01*
X82573864Y-74414005D01*
X82576290Y-74407254D01*
X82603466Y-74472862D01*
X83007138Y-74876534D01*
X83534561Y-75095000D01*
X84105439Y-75095000D01*
X84632862Y-74876534D01*
X85036534Y-74472862D01*
X85255000Y-73945439D01*
X85255000Y-73374561D01*
X86195000Y-73374561D01*
X86195000Y-73945439D01*
X86413466Y-74472862D01*
X86817138Y-74876534D01*
X87344561Y-75095000D01*
X87915439Y-75095000D01*
X88442862Y-74876534D01*
X88651651Y-74667745D01*
X89301861Y-74667745D01*
X89375995Y-74913864D01*
X89913223Y-75106965D01*
X90483454Y-75079778D01*
X90884005Y-74913864D01*
X90958139Y-74667745D01*
X90130000Y-73839605D01*
X89301861Y-74667745D01*
X88651651Y-74667745D01*
X88846534Y-74472862D01*
X88873525Y-74407701D01*
X88876136Y-74414005D01*
X89122255Y-74488139D01*
X89950395Y-73660000D01*
X90309605Y-73660000D01*
X91137745Y-74488139D01*
X91383864Y-74414005D01*
X91576965Y-73876777D01*
X91553021Y-73374561D01*
X92545000Y-73374561D01*
X92545000Y-73945439D01*
X92763466Y-74472862D01*
X93167138Y-74876534D01*
X93694561Y-75095000D01*
X94265439Y-75095000D01*
X94792862Y-74876534D01*
X95001651Y-74667745D01*
X95651861Y-74667745D01*
X95725995Y-74913864D01*
X96263223Y-75106965D01*
X96833454Y-75079778D01*
X97234005Y-74913864D01*
X97308139Y-74667745D01*
X96480000Y-73839605D01*
X95651861Y-74667745D01*
X95001651Y-74667745D01*
X95196534Y-74472862D01*
X95223525Y-74407701D01*
X95226136Y-74414005D01*
X95472255Y-74488139D01*
X96300395Y-73660000D01*
X96659605Y-73660000D01*
X97487745Y-74488139D01*
X97733864Y-74414005D01*
X97926965Y-73876777D01*
X97899778Y-73306546D01*
X97733864Y-72905995D01*
X97487745Y-72831861D01*
X96659605Y-73660000D01*
X96300395Y-73660000D01*
X95472255Y-72831861D01*
X95226136Y-72905995D01*
X95223710Y-72912746D01*
X95196534Y-72847138D01*
X95001651Y-72652255D01*
X95651861Y-72652255D01*
X96480000Y-73480395D01*
X97308139Y-72652255D01*
X97234005Y-72406136D01*
X96696777Y-72213035D01*
X96126546Y-72240222D01*
X95725995Y-72406136D01*
X95651861Y-72652255D01*
X95001651Y-72652255D01*
X94792862Y-72443466D01*
X94265439Y-72225000D01*
X93694561Y-72225000D01*
X93167138Y-72443466D01*
X92763466Y-72847138D01*
X92545000Y-73374561D01*
X91553021Y-73374561D01*
X91549778Y-73306546D01*
X91383864Y-72905995D01*
X91137745Y-72831861D01*
X90309605Y-73660000D01*
X89950395Y-73660000D01*
X89122255Y-72831861D01*
X88876136Y-72905995D01*
X88873710Y-72912746D01*
X88846534Y-72847138D01*
X88651651Y-72652255D01*
X89301861Y-72652255D01*
X90130000Y-73480395D01*
X90958139Y-72652255D01*
X90884005Y-72406136D01*
X90346777Y-72213035D01*
X89776546Y-72240222D01*
X89375995Y-72406136D01*
X89301861Y-72652255D01*
X88651651Y-72652255D01*
X88442862Y-72443466D01*
X87915439Y-72225000D01*
X87344561Y-72225000D01*
X86817138Y-72443466D01*
X86413466Y-72847138D01*
X86195000Y-73374561D01*
X85255000Y-73374561D01*
X85036534Y-72847138D01*
X84632862Y-72443466D01*
X84105439Y-72225000D01*
X83534561Y-72225000D01*
X83007138Y-72443466D01*
X82603466Y-72847138D01*
X82576475Y-72912299D01*
X82573864Y-72905995D01*
X82327745Y-72831861D01*
X81499605Y-73660000D01*
X81140395Y-73660000D01*
X80312255Y-72831861D01*
X80066136Y-72905995D01*
X79873035Y-73443223D01*
X72655000Y-73443223D01*
X72655000Y-73354670D01*
X72421310Y-72790493D01*
X72283072Y-72652255D01*
X80491861Y-72652255D01*
X81320000Y-73480395D01*
X82148139Y-72652255D01*
X82074005Y-72406136D01*
X81536777Y-72213035D01*
X80966546Y-72240222D01*
X80565995Y-72406136D01*
X80491861Y-72652255D01*
X72283072Y-72652255D01*
X71989507Y-72358690D01*
X71425330Y-72125000D01*
X70814670Y-72125000D01*
X70250493Y-72358690D01*
X70081275Y-72527908D01*
X70078157Y-72512235D01*
X69937809Y-72302191D01*
X69727765Y-72161843D01*
X69480000Y-72112560D01*
X67680000Y-72112560D01*
X67432235Y-72161843D01*
X67222191Y-72302191D01*
X67081843Y-72512235D01*
X67032560Y-72760000D01*
X58547000Y-72760000D01*
X58547000Y-66060320D01*
X73032880Y-66060320D01*
X73032880Y-68559680D01*
X73082163Y-68807445D01*
X73222511Y-69017489D01*
X73432555Y-69157837D01*
X73680320Y-69207120D01*
X76179680Y-69207120D01*
X76427445Y-69157837D01*
X76637489Y-69017489D01*
X76777837Y-68807445D01*
X76804261Y-68674601D01*
X77037415Y-68907755D01*
X77730114Y-69194680D01*
X78479886Y-69194680D01*
X79172585Y-68907755D01*
X79692500Y-68387840D01*
X80212415Y-68907755D01*
X80905114Y-69194680D01*
X81654886Y-69194680D01*
X82347585Y-68907755D01*
X82877755Y-68377585D01*
X83164680Y-67684886D01*
X83164680Y-66935114D01*
X82877755Y-66242415D01*
X82695660Y-66060320D01*
X87002880Y-66060320D01*
X87002880Y-68559680D01*
X87052163Y-68807445D01*
X87192511Y-69017489D01*
X87402555Y-69157837D01*
X87650320Y-69207120D01*
X90149680Y-69207120D01*
X90397445Y-69157837D01*
X90607489Y-69017489D01*
X90747837Y-68807445D01*
X90774261Y-68674601D01*
X91007415Y-68907755D01*
X91700114Y-69194680D01*
X92449886Y-69194680D01*
X93142585Y-68907755D01*
X93662500Y-68387840D01*
X94182415Y-68907755D01*
X94875114Y-69194680D01*
X95624886Y-69194680D01*
X96317585Y-68907755D01*
X96847755Y-68377585D01*
X97134680Y-67684886D01*
X97134680Y-66935114D01*
X96847755Y-66242415D01*
X96317585Y-65712245D01*
X95624886Y-65425320D01*
X94875114Y-65425320D01*
X94182415Y-65712245D01*
X93662500Y-66232160D01*
X93142585Y-65712245D01*
X92449886Y-65425320D01*
X91700114Y-65425320D01*
X91007415Y-65712245D01*
X90774261Y-65945399D01*
X90747837Y-65812555D01*
X90607489Y-65602511D01*
X90397445Y-65462163D01*
X90149680Y-65412880D01*
X87650320Y-65412880D01*
X87402555Y-65462163D01*
X87192511Y-65602511D01*
X87052163Y-65812555D01*
X87002880Y-66060320D01*
X82695660Y-66060320D01*
X82347585Y-65712245D01*
X81654886Y-65425320D01*
X80905114Y-65425320D01*
X80212415Y-65712245D01*
X79692500Y-66232160D01*
X79172585Y-65712245D01*
X78479886Y-65425320D01*
X77730114Y-65425320D01*
X77037415Y-65712245D01*
X76804261Y-65945399D01*
X76777837Y-65812555D01*
X76637489Y-65602511D01*
X76427445Y-65462163D01*
X76179680Y-65412880D01*
X73680320Y-65412880D01*
X73432555Y-65462163D01*
X73222511Y-65602511D01*
X73082163Y-65812555D01*
X73032880Y-66060320D01*
X58547000Y-66060320D01*
X58547000Y-56705431D01*
X58725000Y-56705431D01*
X58725000Y-57594569D01*
X59065259Y-58416026D01*
X59693974Y-59044741D01*
X60515431Y-59385000D01*
X61404569Y-59385000D01*
X62226026Y-59044741D01*
X62854741Y-58416026D01*
X63195000Y-57594569D01*
X63195000Y-56705431D01*
X128575000Y-56705431D01*
X128575000Y-57594569D01*
X128915259Y-58416026D01*
X129543974Y-59044741D01*
X130365431Y-59385000D01*
X131254569Y-59385000D01*
X132076026Y-59044741D01*
X132704741Y-58416026D01*
X133045000Y-57594569D01*
X133045000Y-56705431D01*
X132704741Y-55883974D01*
X132076026Y-55255259D01*
X131254569Y-54915000D01*
X130365431Y-54915000D01*
X129543974Y-55255259D01*
X128915259Y-55883974D01*
X128575000Y-56705431D01*
X63195000Y-56705431D01*
X62854741Y-55883974D01*
X62226026Y-55255259D01*
X61404569Y-54915000D01*
X60515431Y-54915000D01*
X59693974Y-55255259D01*
X59065259Y-55883974D01*
X58725000Y-56705431D01*
X58547000Y-56705431D01*
X58547000Y-54737000D01*
X133223000Y-54737000D01*
X133223000Y-123063000D01*
G04 #@! TD*
M02*
