G04 #@! TF.GenerationSoftware,KiCad,Pcbnew,(6.0.0-rc1-dev-441-gb1e5549)*
G04 #@! TF.CreationDate,2018-09-12T02:05:33+03:00*
G04 #@! TF.ProjectId,APC,4150432E6B696361645F706362000000,rev?*
G04 #@! TF.SameCoordinates,Original*
G04 #@! TF.FileFunction,Soldermask,Top*
G04 #@! TF.FilePolarity,Negative*
%FSLAX46Y46*%
G04 Gerber Fmt 4.6, Leading zero omitted, Abs format (unit mm)*
G04 Created by KiCad (PCBNEW (6.0.0-rc1-dev-441-gb1e5549)) date 2018 September 12, Wednesday 02:05:33*
%MOMM*%
%LPD*%
G01*
G04 APERTURE LIST*
%ADD10C,3.600000*%
%ADD11R,2.000000X2.000000*%
%ADD12O,2.000000X2.000000*%
%ADD13C,2.000000*%
%ADD14C,2.899360*%
%ADD15R,2.899360X2.899360*%
%ADD16R,2.200000X2.200000*%
%ADD17C,2.200000*%
G04 APERTURE END LIST*
D10*
G04 #@! TO.C, *
X60960000Y-120650000D03*
G04 #@! TD*
G04 #@! TO.C, *
X130810000Y-57150000D03*
G04 #@! TD*
D11*
G04 #@! TO.C,U1*
X81280000Y-81280000D03*
D12*
X88900000Y-96520000D03*
X81280000Y-83820000D03*
X88900000Y-93980000D03*
X81280000Y-86360000D03*
X88900000Y-91440000D03*
X81280000Y-88900000D03*
X88900000Y-88900000D03*
X81280000Y-91440000D03*
X88900000Y-86360000D03*
X81280000Y-93980000D03*
X88900000Y-83820000D03*
X81280000Y-96520000D03*
X88900000Y-81280000D03*
G04 #@! TD*
D13*
G04 #@! TO.C,C2*
X74930000Y-96480000D03*
D11*
X74930000Y-93980000D03*
G04 #@! TD*
D13*
G04 #@! TO.C,C5*
X95210000Y-86360000D03*
D11*
X92710000Y-86360000D03*
G04 #@! TD*
D14*
G04 #@! TO.C,RV1*
X81280000Y-67310000D03*
X78105000Y-67310000D03*
D15*
X74930000Y-67310000D03*
G04 #@! TD*
D14*
G04 #@! TO.C,RV2*
X95250000Y-67310000D03*
X92075000Y-67310000D03*
D15*
X88900000Y-67310000D03*
G04 #@! TD*
D14*
G04 #@! TO.C,J1*
X68580000Y-102870000D03*
D15*
X68580000Y-106680000D03*
G04 #@! TD*
D13*
G04 #@! TO.C,C1*
X93980000Y-73660000D03*
X96480000Y-73660000D03*
G04 #@! TD*
G04 #@! TO.C,C3*
X83820000Y-73660000D03*
X81320000Y-73660000D03*
G04 #@! TD*
G04 #@! TO.C,C4*
X90130000Y-73660000D03*
X87630000Y-73660000D03*
G04 #@! TD*
D16*
G04 #@! TO.C,D1*
X68580000Y-73660000D03*
D17*
X71120000Y-73660000D03*
G04 #@! TD*
D15*
G04 #@! TO.C,J2*
X74930000Y-106680000D03*
D14*
X74930000Y-102870000D03*
G04 #@! TD*
G04 #@! TO.C,J3*
X81280000Y-102870000D03*
D15*
X81280000Y-106680000D03*
G04 #@! TD*
G04 #@! TO.C,J4*
X87630000Y-106680000D03*
D14*
X87630000Y-102870000D03*
G04 #@! TD*
D13*
G04 #@! TO.C,R1*
X68580000Y-78740000D03*
D12*
X68580000Y-88900000D03*
G04 #@! TD*
G04 #@! TO.C,R2*
X74930000Y-78740000D03*
D13*
X74930000Y-88900000D03*
G04 #@! TD*
G04 #@! TO.C,R3*
X95250000Y-92710000D03*
D12*
X95250000Y-102870000D03*
G04 #@! TD*
G04 #@! TO.C,R4*
X101111586Y-92710000D03*
D13*
X101111586Y-102870000D03*
G04 #@! TD*
D14*
G04 #@! TO.C,SW1*
X68580000Y-93980000D03*
D15*
X68580000Y-97790000D03*
G04 #@! TD*
D10*
G04 #@! TO.C, *
X60960000Y-57150000D03*
G04 #@! TD*
G04 #@! TO.C, *
X130810000Y-120650000D03*
G04 #@! TD*
M02*
